<?xml version="1.0" encoding="UTF-8"?>
<svg width="599px" height="91px" viewBox="0 0 599 91" version="1.1" xmlns="http://www.w3.org/2000/svg" xmlns:xlink="http://www.w3.org/1999/xlink">
    <!-- Generator: Sketch 52.3 (67297) - http://www.bohemiancoding.com/sketch -->
    <title>Logo_XS2A Sandbox</title>
    <desc>Created with Sketch.</desc>
    <defs>
        <linearGradient x1="37.8713608%" y1="-41.8297802%" x2="54.0282536%" y2="147.13022%" id="linearGradient-1">
            <stop stop-color="#0DB0E2" offset="0%"></stop>
            <stop stop-color="#10317D" offset="100%"></stop>
        </linearGradient>
        <linearGradient x1="50.0088513%" y1="-93.4297802%" x2="50.0088513%" y2="144.36022%" id="linearGradient-2">
            <stop stop-color="#0DB0E2" offset="0%"></stop>
            <stop stop-color="#10317D" offset="100%"></stop>
        </linearGradient>
    </defs>
    <g id="🖥-Layout" stroke="none" stroke-width="1" fill="none" fill-rule="evenodd">
        <g id="Detailseite#-Products---PSD2-Copy" transform="translate(-421.000000, -320.000000)">
            <g id="Logo_XS2A-Sandbox" transform="translate(421.000000, 320.000000)">
                <path d="M25.2,43.8 L2.3,0.2 L17.9,0.2 L33.9,32.3 L48.7,0.2 L63.5,0.2 L40.6,43.5 L65.5,91 L49.9,91 L31.8,54.8 L15.1,91 L0,91 L25.2,43.8 Z M68.2,70.6 L79.9,65.3 C82.7,75.6 86.3,79.1 94.5,79.1 C101.8,79.1 105.9,74.6 105.9,66.4 C105.9,62.2 104.6,58.5 102,55.9 C100,53.9 98.5,53 91.1,49.3 C76.8,42 71.8,35.4 71.8,23.3 C71.8,8.9 80.1,0 93.8,0 C103.9,0 110.1,4 115.8,14 L105.7,20 C103.3,14.6 99.7,12.1 94.3,12.1 C88.1,12.1 84.5,15.9 84.5,22.4 C84.5,29 87.4,32.3 97.9,37.6 C113.8,45.7 118.6,52.2 118.6,65.4 C118.6,81.8 109.7,91 93.8,91 C79.6,91 71.4,84.5 68.2,70.6 Z M125.3,91 L125.3,83.5 L146.4,51.6 C153.3,41.1 157.5,30.5 157.5,22.9 C157.5,16 153.9,12 147.9,12 C142,12 138.8,15.8 136.4,25.5 L124.5,22.3 C126.6,14.5 128,11.1 130.4,8 C134.5,2.6 140.4,0.1 148.4,0.1 C162.4,0.1 170.8,8.7 170.8,23.3 C170.8,33.5 167.1,43.4 158.1,56.8 L143.4,79 L172.7,79 L172.7,91 L125.3,91 Z M214.2,21.4 L193.5,91 L179.3,91 L208.7,0 L219.8,0 L249.2,91 L235,91 L214.2,21.4 Z" id="XS2A-Copy-12" fill="url(#linearGradient-1)"></path>
                <rect id="Rectangle-Copy-5" fill="url(#linearGradient-2)" x="256.1" y="0" width="342.9" height="91"></rect>
                <path d="M270.3,61.9 L278.3,58.3 C280.2,65.3 282.7,67.6 288.2,67.6 C293.2,67.6 296,64.6 296,59 C296,56.1 295.1,53.6 293.3,51.9 C292,50.6 290.9,49.9 285.9,47.4 C276.2,42.5 272.8,38 272.8,29.8 C272.8,20 278.5,14 287.8,14 C294.7,14 298.9,16.7 302.8,23.5 L295.9,27.5 C294.3,23.8 291.8,22.1 288.1,22.1 C283.9,22.1 281.4,24.7 281.4,29.1 C281.4,33.6 283.4,35.8 290.5,39.4 C301.3,44.9 304.6,49.3 304.6,58.2 C304.6,69.3 298.5,75.5 287.7,75.5 C278,75.7 272.4,71.3 270.3,61.9 Z M341.2,60.8 L321.9,60.8 L317.7,74.7 L308.2,74.7 L327.9,14.3 L335.3,14.3 L355,74.7 L345.5,74.7 L341.2,60.8 Z M339.7,53.1 L331.5,26 L323.4,53.1 L339.7,53.1 Z M362.2,74.7 L362.2,14.9 L369.3,14.9 L392.7,54.9 L392.7,15 L401.4,15 L401.4,74.9 L394.9,74.9 L371,33.2 L371,74.7 L362.2,74.7 Z M411.8,74.7 L411.8,15 L424.8,15 C433.9,15 439.8,17 444.5,21.6 C449.9,26.9 452.7,34.9 452.7,44.8 C452.7,54.8 449.8,62.8 444.5,68.1 C439.8,72.8 433.9,74.7 424.8,74.7 L411.8,74.7 Z M421,66.6 L426.4,66.6 C432,66.6 436,64.9 438.6,61.3 C441.5,57.4 443.1,51.7 443.1,44.9 C443.1,37.9 441.6,32.3 438.6,28.4 C435.8,24.7 432,23.1 426.4,23.1 L421,23.1 L421,66.6 Z M460.5,74.7 L460.5,15 L474.9,15 C481.1,15 485.4,16.2 488,18.6 C490.9,21.2 492.6,25.7 492.6,30.7 C492.6,36.3 490.5,40.5 486.6,43.1 C491.9,45.9 494.6,51 494.6,58.2 C494.6,64 492.7,69 489.2,71.7 C486.6,73.9 482.9,74.8 477.1,74.8 L460.5,74.8 L460.5,74.7 Z M469.4,40.1 L475.2,40.1 C481.3,40.1 483.9,37.5 483.9,31.4 C483.9,25.1 481.4,22.6 475.2,22.6 L469.4,22.6 L469.4,40.1 Z M469.4,66.9 L475.8,66.9 C482.4,66.9 485.2,64.1 485.2,57.3 C485.2,50.1 482.3,47.2 475.5,47.2 L469.4,47.2 L469.4,66.9 Z M520.9,14.2 C536.1,14.2 542.9,23.7 542.9,44.9 C542.9,66.1 536.1,75.7 521,75.7 C505.6,75.7 498.9,66.2 498.9,44.4 C498.9,23.7 505.9,14.2 520.9,14.2 Z M520.9,22.3 C512.5,22.3 508.5,29.5 508.5,44.6 C508.5,60.4 512.4,67.5 520.9,67.5 C529.4,67.5 533.3,60.2 533.3,44.8 C533.3,29.4 529.4,22.3 520.9,22.3 Z M559.7,43.6 L544.5,15 L554.9,15 L565.5,36.1 L575.2,15 L585,15 L569.8,43.5 L586.3,74.8 L576,74.8 L564,51 L553,74.7 L543,74.7 L559.7,43.6 Z" id="SANDBOX-Copy" fill="#FFFFFF"></path>
            </g>
        </g>
    </g>
</svg>