<?xml version="1.0" encoding="UTF-8"?>
<svg width="51px" height="51px" viewBox="0 0 51 51" version="1.1" xmlns="http://www.w3.org/2000/svg" xmlns:xlink="http://www.w3.org/1999/xlink">
    <!-- Generator: Sketch 52.3 (67297) - http://www.bohemiancoding.com/sketch -->
    <title>Group 5</title>
    <desc>Created with Sketch.</desc>
    <defs>
        <filter x="-173.8%" y="-173.8%" width="447.6%" height="447.6%" filterUnits="objectBoundingBox" id="filter-1">
            <feOffset dx="0" dy="4" in="SourceAlpha" result="shadowOffsetOuter1"></feOffset>
            <feGaussianBlur stdDeviation="7.5" in="shadowOffsetOuter1" result="shadowBlurOuter1"></feGaussianBlur>
            <feColorMatrix values="0 0 0 0 0.724728954   0 0 0 0 0.724728954   0 0 0 0 0.724728954  0 0 0 0.5 0" type="matrix" in="shadowBlurOuter1" result="shadowMatrixOuter1"></feColorMatrix>
            <feMerge>
                <feMergeNode in="shadowMatrixOuter1"></feMergeNode>
                <feMergeNode in="SourceGraphic"></feMergeNode>
            </feMerge>
        </filter>
        <linearGradient x1="-80.6470181%" y1="75.5531558%" x2="149.096456%" y2="75.5531558%" id="linearGradient-2">
            <stop stop-color="#0DB0E2" offset="0%"></stop>
            <stop stop-color="#10317D" offset="100%"></stop>
        </linearGradient>
    </defs>
    <g id="TPP-Dashboard" stroke="none" stroke-width="1" fill="none" fill-rule="evenodd">
        <g id="List-of-users" transform="translate(-1277.000000, -803.000000)" fill-rule="nonzero">
            <g id="Group-5" filter="url(#filter-1)" transform="translate(1292.000000, 814.000000)">
                <g id="Group-2">
                    <path d="M0,10.5 C0,16.2897 4.7103,21 10.5,21 C16.2897,21 21,16.2897 21,10.5 C21,4.7103 16.2897,0 10.5,0 C4.7103,0 0,4.7103 0,10.5 Z" id="Path" fill="url(#linearGradient-2)"></path>
                    <path d="M13.475,11.375 L11.375,11.375 L11.375,13.475 C11.375,14.0525 10.9025,14.525 10.325,14.525 C9.7475,14.525 9.275,14.0525 9.275,13.475 L9.275,11.375 L7.175,11.375 C6.5975,11.375 6.125,10.9025 6.125,10.325 C6.125,9.7475 6.5975,9.275 7.175,9.275 L9.275,9.275 L9.275,7.175 C9.275,6.5975 9.7475,6.125 10.325,6.125 C10.9025,6.125 11.375,6.5975 11.375,7.175 L11.375,9.275 L13.475,9.275 C14.0525,9.275 14.525,9.7475 14.525,10.325 C14.525,10.9025 14.0525,11.375 13.475,11.375" id="Path" fill="#FFFFFF"></path>
                </g>
            </g>
        </g>
    </g>
</svg>
