<?xml version="1.0" encoding="UTF-8"?>
<svg width="17px" height="17px" viewBox="0 0 17 17" version="1.1" xmlns="http://www.w3.org/2000/svg" xmlns:xlink="http://www.w3.org/1999/xlink">
    <!-- Generator: Sketch 52.3 (67297) - http://www.bohemiancoding.com/sketch -->
    <title>icons8-calendar</title>
    <desc>Created with Sketch.</desc>
    <g id="TPP-Dashboard" stroke="none" stroke-width="1" fill="none" fill-rule="evenodd">
        <g id="Klick-Account_Transactions" transform="translate(-465.000000, -302.000000)" fill="#2C2E2F" fill-rule="nonzero">
            <g id="Group" transform="translate(424.000000, 279.000000)">
                <g id="icons8-calendar" transform="translate(41.000000, 23.000000)">
                    <path d="M4.57692308,0 C4.21679704,0 3.92307692,0.293720115 3.92307692,0.653846154 L3.92307692,2.61538462 C3.92307692,2.97551065 4.21679704,3.26923077 4.57692308,3.26923077 C4.93704912,3.26923077 5.23076923,2.97551065 5.23076923,2.61538462 L5.23076923,0.653846154 C5.23076923,0.293720115 4.93704912,0 4.57692308,0 Z M12.4230769,0 C12.0629509,0 11.7692308,0.293720115 11.7692308,0.653846154 L11.7692308,2.61538462 C11.7692308,2.97551065 12.0629509,3.26923077 12.4230769,3.26923077 C12.783203,3.26923077 13.0769231,2.97551065 13.0769231,2.61538462 L13.0769231,0.653846154 C13.0769231,0.293720115 12.783203,0 12.4230769,0 Z M1.96153846,1.30769231 C0.878605769,1.30769231 0,2.18629808 0,3.26923077 L0,15.0384615 C0,16.1213942 0.878605769,17 1.96153846,17 L15.0384615,17 C16.1213942,17 17,16.1213942 17,15.0384615 L17,3.26923077 C17,2.18629808 16.1213942,1.30769231 15.0384615,1.30769231 L13.7307692,1.30769231 L13.7307692,2.61538462 C13.7307692,3.33819127 13.1458836,3.92307692 12.4230769,3.92307692 C11.7002703,3.92307692 11.1153846,3.33819127 11.1153846,2.61538462 L11.1153846,1.30769231 L5.88461538,1.30769231 L5.88461538,2.61538462 C5.88461538,3.33819127 5.29972973,3.92307692 4.57692308,3.92307692 C3.85411642,3.92307692 3.26923077,3.33819127 3.26923077,2.61538462 L3.26923077,1.30769231 L1.96153846,1.30769231 Z M1.30769231,5.88461538 L15.6923077,5.88461538 L15.6923077,15.0384615 C15.6923077,15.3985876 15.3985876,15.6923077 15.0384615,15.6923077 L1.96153846,15.6923077 C1.60141242,15.6923077 1.30769231,15.3985876 1.30769231,15.0384615 L1.30769231,5.88461538 Z M6.59800886,14.0795454 C7.9048258,14.0795454 8.839484,13.3607961 8.83664309,12.3664788 C8.839484,11.6420477 8.37925716,11.1250027 7.52414434,11.0170483 L7.52414434,10.9715938 C8.1747119,10.8551166 8.62357511,10.3948898 8.62073421,9.74148133 C8.62357511,8.82386857 7.81959861,8.10227835 6.6150543,8.10227835 C5.42187362,8.10227835 4.5241472,8.80114132 4.50710177,9.80682218 L5.68607791,9.80682218 C5.70028245,9.36364079 6.10653206,9.07670924 6.60937249,9.07670924 C7.10653111,9.07670924 7.43891715,9.37784532 7.43607625,9.8153449 C7.43891715,10.2727308 7.04971298,10.5823896 6.49005442,10.5823896 L5.9474413,10.5823896 L5.9474413,11.4857979 L6.49005442,11.4857979 C7.1491447,11.4857979 7.56107613,11.815343 7.55823522,12.2840925 C7.56107613,12.7471603 7.16334923,13.0653418 6.60084977,13.0653418 C6.05823665,13.0653418 5.65198704,12.7812512 5.62925979,12.3551152 L4.3906246,12.3551152 C4.41051095,13.3721597 5.31960099,14.0795454 6.59800886,14.0795454 Z M12.1122132,8.18182373 L10.9275552,8.18182373 C10.9133507,8.53693703 10.4133512,9.14205009 9.66619279,9.14205009 L9.66619279,10.1193219 C10.3082376,10.1193219 10.7258509,9.88068575 10.8508507,9.68750411 L10.904828,9.68750411 L10.904828,14 L12.1122132,14 Z" id="Shape"></path>
                </g>
            </g>
        </g>
    </g>
</svg>