<?xml version="1.0" encoding="UTF-8"?>
<svg width="17px" height="18px" viewBox="0 0 17 18" version="1.1" xmlns="http://www.w3.org/2000/svg" xmlns:xlink="http://www.w3.org/1999/xlink">
    <!-- Generator: Sketch 52.3 (67297) - http://www.bohemiancoding.com/sketch -->
    <title>icons8-search</title>
    <desc>Created with Sketch.</desc>
    <g id="TPP-Dashboard" stroke="none" stroke-width="1" fill="none" fill-rule="evenodd">
        <g id="List-of-users" transform="translate(-715.000000, -182.000000)" fill="#2C2E2F" fill-rule="nonzero">
            <g id="Group-4" transform="translate(679.000000, 163.000000)">
                <g id="icons8-search" transform="translate(36.000000, 19.000000)">
                    <path d="M6.73561544,0.5 C3.01957402,0.5 0,3.45080081 0,7.08220641 C0,10.713612 3.01957402,13.6644128 6.73561544,13.6644128 C8.2059361,13.6644128 9.56482156,13.2016016 10.6729789,12.4181495 L15.8856519,17.5 L17,16.411032 L11.8492353,11.3654804 C12.861435,10.2129895 13.4712309,8.71717072 13.4712309,7.08220641 C13.4712309,3.45080081 10.4516569,0.5 6.73561544,0.5 Z M6.72609096,1.36827885 C10.0563644,1.36827885 12.7469243,3.90057052 12.7469243,7.03494552 C12.7469243,10.1693205 10.0563644,12.7016122 6.72609096,12.7016122 C3.39581752,12.7016122 0.705257627,10.1693205 0.705257627,7.03494552 C0.705257627,3.90057052 3.39581752,1.36827885 6.72609096,1.36827885 Z" id="Shape"></path>
                </g>
            </g>
        </g>
    </g>
</svg>