<?xml version="1.0" encoding="utf-8"?>
<!-- Generator: Adobe Illustrator 21.0.2, SVG Export Plug-In . SVG Version: 6.00 Build 0)  -->
<svg version="1.1" id="svgicon_adorsys_logo" xmlns="http://www.w3.org/2000/svg" xmlns:xlink="http://www.w3.org/1999/xlink"
	 x="0px" y="0px" viewBox="0 0 274.1 43.5" style="enable-background:new 0 0 274.1 43.5;" xml:space="preserve">
<style type="text/css">
	.st0{fill:#044F73;}
</style>
<title>adorsys_logo</title>
<path class="st0" d="M41.7,27.7c0,5.7-4.3,8.6-12.9,8.6H13.4c-2.9,0-5.9-0.6-8.5-1.9C1.6,32.9,0,30.7,0,28v-3.6c0-3,1.6-5.2,4.7-6.7
	c2.7-1.2,5.6-1.8,8.6-1.7h22.3c-0.3-2-3.2-3-8.6-3c-0.6,0-1.3,0-2.1,0L23.3,13c-1.1,0.1-2.2-0.7-2.3-1.8c0-0.2,0-0.4,0-0.5v-0.6
	c-0.2-1.1,0.6-2.2,1.7-2.4c0.2,0,0.4,0,0.6,0c5.3,0,9.1,0.3,11.5,1c4.6,1.3,6.9,3.9,6.9,7.8L41.7,27.7L41.7,27.7z M35.4,21.2H13.1
	c-1.4,0-2.7,0.3-4,0.7c-1.8,0.6-2.7,1.4-2.7,2.4V28c0,1,0.9,1.8,2.8,2.4c1.3,0.4,2.7,0.7,4.1,0.7h15.6c2.8,0,4.6-0.4,5.5-1.1
	c0.8-0.6,1.1-1.9,1.1-3.7c0-0.4,0-1.2-0.1-2.3C35.5,22.9,35.4,22,35.4,21.2"/>
<path class="st0" d="M86,27.5c0,3-1.9,5.4-5.8,7c-3,1.2-6.3,1.9-9.6,1.8H61c-9.8,0-14.9-2.7-15.1-8.1c-0.1-3-0.1-6.8,0.1-11.4
	C46.2,10.9,51.2,8,60.9,8h18.8V2.4c-0.2-1.1,0.6-2.2,1.7-2.4c0.2,0,0.4,0,0.5,0c0.9,0,1.8,0,2.7,0.2c0.9,0.3,1.5,1.2,1.3,2.2V27.5z
	 M79.7,27.4V13.2H60.8c-5.6,0-8.4,1.2-8.4,3.7v10.2c0,1.9,1.1,3,3.2,3.6c1.8,0.3,3.6,0.4,5.4,0.4H70C76.5,31,79.7,29.8,79.7,27.4"/>
<path class="st0" d="M128.9,27.4c0,3.2-1.6,5.6-4.8,7.2c-2.9,1.2-6,1.8-9.1,1.7h-10.5c-3.2,0.1-6.4-0.5-9.3-1.8
	c-3.5-1.6-5.2-3.9-5.2-7.1V16.9c0-3.2,1.7-5.6,5.2-7.3c2.9-1.3,6.1-2,9.3-1.9h10.5c9.3,0,14,3,14,9.1L128.9,27.4L128.9,27.4z
	 M122.5,27.4v-11c0-2.3-2.6-3.4-7.8-3.4h-10.2c-1.7,0-3.5,0.2-5.1,0.7c-2.1,0.7-3.2,1.7-3.2,3.2v10.5c0,1.4,1.1,2.4,3.3,3
	c1.7,0.4,3.4,0.7,5.1,0.6h10.2c1.6,0,3.2-0.2,4.7-0.7C121.5,29.7,122.5,28.7,122.5,27.4"/>
<path class="st0" d="M151.4,10.7c0.2,1.1-0.6,2.2-1.8,2.3c-0.2,0-0.4,0-0.6,0h-2.7c-4.8,0-7.2,1.2-7.2,3.6V34
	c0.1,0.9-0.4,1.8-1.3,2.2c-0.9,0.2-1.8,0.2-2.8,0.2c-1.1,0.1-2.2-0.7-2.3-1.8c0-0.2,0-0.4,0-0.6l0.1-17.4c0-5.9,5.4-8.9,16.2-8.9
	C150.7,7.7,151.4,8.7,151.4,10.7"/>
<path class="st0" d="M191,28.1c0,5.5-4.2,8.2-12.5,8.2h-21.3c-1.1,0.1-2.2-0.7-2.3-1.8c0-0.2,0-0.3,0-0.5c0-1.9,0.8-2.9,2.3-2.9
	h21.3c3.9,0,5.9-1,5.9-2.9v-1.1c0-1.7-1.8-2.6-5.4-2.6h-10.2c-9.4,0-14.1-2.6-14.1-7.9V15c0-3.5,2.4-5.7,7.2-6.7
	c3.6-0.5,7.3-0.7,11-0.6c1.1-0.2,2.2,0.6,2.4,1.8c0,0.2,0,0.4,0,0.6v0.6c0.2,1.1-0.6,2.2-1.7,2.3c-0.2,0-0.4,0-0.6,0h-4.5
	c-2.3,0-3.7,0-4.2,0.1c-2.1,0.2-3.2,0.9-3.2,1.9v1.5c0,1.2,1.1,2,3.2,2.4c1.5,0.2,3.1,0.2,4.6,0.2h10.4c7.8,0,11.7,2.6,11.7,7.7
	L191,28.1L191,28.1z"/>
<path class="st0" d="M232.9,7.9c-0.9-0.2-1.8-0.2-2.7-0.2c-1.1-0.2-2.2,0.6-2.4,1.8c0,0.2,0,0.4,0,0.6v20.8h-18.8
	c-5.3,0-7.9-1.1-7.9-3.3V10.1c0.2-1.1-0.6-2.2-1.7-2.4c-0.2,0-0.4,0-0.6,0c-0.9,0-1.8,0-2.7,0.2c-0.9,0.3-1.4,1.2-1.2,2.2v17.5
	c0,5.7,4.7,8.5,14.2,8.5h18.8v5.1c-0.2,1.1,0.6,2.2,1.7,2.4c0.2,0,0.4,0,0.6,0c0.9,0,1.9,0,2.8-0.2c0.9-0.3,1.4-1.2,1.3-2.2V10.1
	C234.4,9.1,233.9,8.2,232.9,7.9"/>
<path class="st0" d="M274.1,28.1c0,5.5-4.2,8.2-12.5,8.2h-21.3c-1.1,0.2-2.2-0.6-2.4-1.7c0-0.2,0-0.4,0-0.6c0-2,0.8-3,2.4-3h21.3
	c3.9,0,5.9-1,5.9-2.9v-1c0-1.7-1.8-2.6-5.4-2.6H252c-9.4,0-14.1-2.6-14.1-7.9V15c0-3.5,2.4-5.7,7.2-6.7c3.6-0.5,7.3-0.7,11-0.6
	c1.1-0.2,2.2,0.6,2.4,1.8c0,0.2,0,0.4,0,0.6v0.6c0.2,1.1-0.6,2.2-1.8,2.3c-0.2,0-0.4,0-0.6,0h-4.5c-2.3,0-3.7,0-4.2,0.1
	c-2.1,0.2-3.2,0.9-3.2,1.9v1.5c0,1.2,1.1,2,3.2,2.4c1.5,0.2,3.1,0.2,4.6,0.2h10.4c7.8,0,11.7,2.6,11.7,7.7L274.1,28.1L274.1,28.1z"
	/>
</svg>
