<svg viewBox="0 0 762.88 212.91" xmlns="http://www.w3.org/2000/svg" xmlns:xlink="http://www.w3.org/1999/xlink"><linearGradient id="a" gradientUnits="userSpaceOnUse" x1="159.23" x2="159.23" y1="211.09" y2="147.23"><stop offset="0" stop-color="#0c85c0"/><stop offset=".58" stop-color="#16b5de" stop-opacity=".69"/><stop offset="1" stop-color="#16bae1" stop-opacity=".48"/></linearGradient><linearGradient id="b" gradientUnits="userSpaceOnUse" x1="147.31" x2="259.07" y1="159.25" y2="159.25"><stop offset="0" stop-color="#0c85c0"/><stop offset=".71" stop-color="#16b5de"/><stop offset="1" stop-color="#16bae1"/></linearGradient><path d="m213.6 211.21 54.11-103.07h8.58l16.09 103.07h-7.83l-4.64-29.83h-43.67l-15.67 29.83zm65.1-38.32-8.7-55.79-29.3 55.79z"/><path d="m348 157.74c-3.7-6-7.77-8.65-14.08-8.65-14.27 0-25.89 14.68-26.53 33.22-.49 13.91 6.28 22.56 17.64 22.56 6.56 0 11.45-2.63 17.23-9.27l3.83 6c-7.6 7.88-14.15 11.28-22.61 11.28-14.51 0-24.05-12.21-23.43-30.13.79-22.57 17.11-41.73 35.41-41.73 7.7 0 12.89 2.94 18.3 10.82z"/><path d="m399.38 157.74c-3.71-6-7.78-8.65-14.09-8.65-14.26 0-25.88 14.68-26.53 33.22-.48 13.91 6.28 22.56 17.64 22.56 6.57 0 11.45-2.63 17.24-9.27l3.83 6c-7.6 7.88-14.16 11.28-22.61 11.28-14.51 0-24.06-12.21-23.43-30.13.79-22.57 17.1-41.73 35.4-41.73 7.7 0 12.9 2.94 18.3 10.82z"/><path d="m410 182.93c-.46 13.13 6 21.94 16.28 21.94 7.69 0 14.4-4.17 19.86-12.21l5.94 3.25c-7.59 11.28-16.75 17-27 17-14 0-22.93-12.06-22.3-30 .77-22.1 16.48-41.88 33.39-41.88 13.25 0 21.55 11.75 20.92 29.83a73.63 73.63 0 0 1 -1.1 9.73h-45.93zm40.1-9.74c.2-5.87.12-7.1-.64-10.66-1.85-8.5-7.23-13.44-14.55-13.44-10.47 0-19.89 9.58-23.56 24.1z"/><path d="m460.62 211.21 17-103.07h7.07l-17 103.07z"/><path d="m490.13 182.93c-.46 13.13 6 21.94 16.27 21.94 7.7 0 14.4-4.17 19.86-12.21l5.94 3.25c-7.58 11.28-16.74 17-27 17-14 0-22.92-12.06-22.3-30 .78-22.1 16.48-41.88 33.4-41.88 13.25 0 21.54 11.75 20.91 29.83a73.63 73.63 0 0 1 -1.1 9.73h-45.9zm40.09-9.74c.21-5.87.12-7.1-.64-10.66-1.85-8.5-7.23-13.44-14.54-13.44-10.48 0-19.9 9.58-23.56 24.1z"/><path d="m559.55 142.75-1.55 9.43c4.9-6.65 10.3-9.43 17.87-9.43h1.65l-1.29 7.88h-1.64a17.17 17.17 0 0 0 -15.06 8.5c-2.81 4.48-4.23 9.12-5.71 18.86l-5.58 33.22h-7.06l11.22-68.46z"/><path d="m616.48 211.21 1.91-11.28c-7.64 9.11-14.59 13-23.17 13-13.88 0-23.42-12.52-22.8-30.13.77-22.1 17.1-41.73 34.77-41.73 8.46 0 14 3.87 18.73 13l1.91-11.28h7.07l-11.23 68.46zm-36.72-29.05c-.49 13.9 6.27 22.71 17.13 22.71 13.75 0 25.38-14.83 26-33.38.47-13.44-6.15-22.4-16.63-22.4-14.26 0-25.85 14.52-26.5 33.07z"/><path d="m642 150.63 1.28-7.88h6.56l2.74-16.84 7.69-3.4-3.36 20.24h9.59l-1.28 7.88h-9.6l-6.62 40.18a41.13 41.13 0 0 0 -.56 5.25c-.19 5.41 1.36 7.88 5.15 7.88a12.52 12.52 0 0 0 3.68-.61l-1.27 7.88a17.84 17.84 0 0 1 -5.2.92c-6.69 0-9.93-4.94-9.59-14.68a63.27 63.27 0 0 1 .61-6.64l6.71-40.18z"/><path d="m722.76 171c-.78 22.41-17.11 41.88-35 41.88-14.39 0-23.8-12.37-23.17-30.29.78-22.41 17.1-41.57 35.4-41.57 13.85.03 23.38 12.55 22.77 29.98zm-50.87 11.13c-.48 13.75 6.28 22.71 17.13 22.71 14 0 25.76-14.83 26.4-33.22.48-13.6-6.28-22.56-16.88-22.56-14.26.03-26 14.55-26.65 33.1z"/><path d="m745 142.75-1.6 9.43c4.91-6.65 10.3-9.43 17.87-9.43h1.65l-1.29 7.88h-1.63a17.17 17.17 0 0 0 -15.06 8.5c-2.81 4.48-4.23 9.12-5.71 18.86l-5.58 33.22h-7.06l11.22-68.46z"/><path d="m20.49 100.3h-20.49v-99.79h24.54c13.61 0 20.4 2.25 26.1 7.65 5.85 5.55 9.36 13.84 9.36 24.51 0 18.49-10.78 32.33-31.48 32.33h-8zm9.51-54.41a6.41 6.41 0 0 0 6.54-6.47v-9a6.56 6.56 0 0 0 -6.54-6.58h-9.51v22.05z"/><path d="m89.6 71a6.44 6.44 0 0 0 6.55 6.54 6.57 6.57 0 0 0 6.54-6.54c0-5.76-6.54-9.57-14.29-12-12.84-4.1-22.25-14.66-22.25-29.06a30 30 0 0 1 29.76-29.94c13.63 0 30.09 11 30.09 29.71h-23.18a6.67 6.67 0 0 0 -6.67-6.58 6.41 6.41 0 0 0 -6.55 6.05c0 3.06.64 6.63 11 10.07 16 5.61 25.87 14.63 25.87 30.63a29.86 29.86 0 0 1 -29.94 30c-22.81 0-30-20.64-30-28.84z"/><path d="m137.09 0h30a29.75 29.75 0 0 1 30 29.88v39.91a29.77 29.77 0 0 1 -30 30h-30zm30 77.53a6.32 6.32 0 0 0 6.54-6.53v-41.12c0-5.72-5.59-6.6-6.54-6.6h-9.51v54.25z"/><path d="m241.32 29.71a6.41 6.41 0 0 0 -6.52-6.38 6.25 6.25 0 0 0 -6.52 6.38h-23.18c0-16.09 13.52-29.71 30.08-29.71 16.16 0 29.21 13.51 29.21 30.35 0 5.28-2 10.49-4.94 16.7-6.15 12.83-15.8 30.33-15.8 30.33l31.15.21-11.67 22.24-57.24-.21s12.39-23.75 22.33-42.69c7.05-13.44 13.07-24.03 13.1-27.22z"/><path d="m171.14 147.23h-57.35l33.52 63.86h57.35z" fill="url(#a)"/><path d="m201.72 107.41h57.35l-54.41 103.68h-57.35z" fill="url(#b)"/></svg>