<?xml version="1.0" encoding="UTF-8"?>
<svg width="480px" height="83px" viewBox="0 0 480 83" version="1.1" xmlns="http://www.w3.org/2000/svg" xmlns:xlink="http://www.w3.org/1999/xlink">
    <!-- Generator: Sketch 52.3 (67297) - http://www.bohemiancoding.com/sketch -->
    <title>XS2A Logo</title>
    <desc>Created with Sketch.</desc>
    <defs>
        <linearGradient x1="40.6949002%" y1="-39.7868437%" x2="56.4488486%" y2="143.790849%" id="linearGradient-1">
            <stop stop-color="#0DB0E2" offset="0%"></stop>
            <stop stop-color="#10317D" offset="100%"></stop>
        </linearGradient>
        <linearGradient x1="40.270202%" y1="-39.9828571%" x2="56.0612797%" y2="143.697143%" id="linearGradient-2">
            <stop stop-color="#0DB0E2" offset="0%"></stop>
            <stop stop-color="#10317D" offset="100%"></stop>
        </linearGradient>
        <linearGradient x1="40.1215497%" y1="-39.6785902%" x2="55.9832332%" y2="144.012411%" id="linearGradient-3">
            <stop stop-color="#0DB0E2" offset="0%"></stop>
            <stop stop-color="#10317D" offset="100%"></stop>
        </linearGradient>
        <linearGradient x1="38.0512076%" y1="-39.7924513%" x2="53.8367153%" y2="144.032388%" id="linearGradient-4">
            <stop stop-color="#0DB0E2" offset="0%"></stop>
            <stop stop-color="#10317D" offset="100%"></stop>
        </linearGradient>
    </defs>
    <g id="Screens" stroke="none" stroke-width="1" fill="none" fill-rule="evenodd">
        <g id="API-Products#-XS2A-BANK" transform="translate(-480.000000, -353.000000)">
            <g id="XS2A-Logo" transform="translate(480.000000, 353.000000)">
                <path d="M266.36187,39.4936105 C271.928764,36.0018812 274.78744,30.1823323 274.78744,22.6169188 C274.78744,15.7789488 272.380134,9.66842252 268.317806,6.1766932 C264.55639,2.8304526 258.387669,1.23007666 249.811642,1.23007666 L229.5,1.23007666 L229.5,82.7037609 L252.971231,82.7037609 C261.246345,82.7037609 266.36187,81.5398511 269.972828,78.4845879 C274.937896,74.7018812 277.495659,68.0094 277.495659,60.0075203 C277.646115,50.2597759 273.8847,43.2763173 266.36187,39.4936105 Z M242.138355,11.7052646 L250.413469,11.7052646 C259.139952,11.7052646 262.600454,15.196994 262.600454,23.6353398 C262.600454,31.928197 258.989496,35.4199263 250.413469,35.4199263 L242.138355,35.4199263 L242.138355,11.7052646 Z M251.165752,72.0830842 L242.138355,72.0830842 L242.138355,45.3131594 L250.714382,45.3131594 C260.494062,45.3131594 264.55639,49.3868436 264.55639,59.1345879 C264.55639,68.3003774 260.644518,72.0830842 251.165752,72.0830842 Z" id="Shape" fill="#102239"></path>
                <path d="M319.55137,1 L309.243151,1 L282,82.4736842 L295.106164,82.4736842 L300.849315,63.7606472 L327.503425,63.7606472 L333.393836,82.4736842 L346.5,82.4736842 L319.55137,1 Z M303.205479,53.3965036 L314.39726,16.6901618 L325.589041,53.3965036 L303.205479,53.3965036 Z" id="Shape" fill="#102239"></path>
                <polygon id="Path" fill="#102239" points="356 82.1842573 356 1 365.441417 1 396.912807 55.2675516 396.912807 1.14471347 408.5 1.14471347 408.5 82.4736842 399.773842 82.4736842 367.587193 25.890717 367.587193 82.1842573"></polygon>
                <polygon id="Path" fill="#102239" points="427.5 82.5585315 427.5 1.23007666 440.330056 1.23007666 440.330056 33.6162292 464.367978 1.23007666 478.377809 1.23007666 453.01264 35.2137524 480 82.7037609 465.252809 82.7037609 444.606742 43.9275154 440.477528 49.1557733 440.477528 82.7037609 427.5 82.7037609"></polygon>
                <polygon id="Path" fill="url(#linearGradient-1)" points="21.9566327 40.063926 2.03571429 0.738848588 15.5586735 0.738848588 29.5178571 29.6676412 42.3137755 0.738848588 55.255102 0.738848588 35.3341837 39.7625844 57 82.5530901 43.4770408 82.5530901 27.627551 50.0081984 13.0867347 82.7037609 0 82.7037609"></polygon>
                <path d="M61.5,64.3721819 L71.9854369,59.5710541 C74.461165,68.8823323 77.6650485,71.9375955 84.9466019,71.9375955 C91.5,71.9375955 95.1407767,67.8639112 95.1407767,60.5894752 C95.1407767,56.8067684 93.9757282,53.4605278 91.6456311,51.278197 C89.8980583,49.5323323 88.4417476,48.6594 81.8883495,45.3131594 C69.0728155,38.7661669 64.7038835,32.8011293 64.7038835,22.0349639 C64.7038835,9.08646764 72.276699,1.23007666 84.3640777,1.23007666 C93.3932039,1.23007666 98.9271845,4.72180598 104.024272,13.7421067 L94.9951456,19.1251894 C92.8106796,14.3240616 89.6067961,11.9962421 84.8009709,11.9962421 C79.2669903,11.9962421 76.0631068,15.4879714 76.0631068,21.3075203 C76.0631068,27.2725579 78.684466,30.1823323 88.0048544,34.9834601 C102.131068,42.2578962 106.5,48.0774451 106.5,59.8620315 C106.5,74.5563924 98.4902913,82.7037609 84.3640777,82.7037609 C71.6941748,82.5582721 64.2669903,76.7387233 61.5,64.3721819 Z" id="Path" fill="url(#linearGradient-2)"></path>
                <path d="M113.25,82.7037609 L113.25,75.9019651 L132.3,47.3639958 C138.6,37.9006278 142.35,28.4372598 142.35,21.635464 C142.35,15.4251287 139.05,11.8763657 133.65,11.8763657 C128.4,11.8763657 125.4,15.2772636 123.3,24.001306 L112.5,21.0440035 C114.45,14.0943426 115.65,11.1370401 117.75,8.32760269 C121.5,3.44805354 126.75,1.23007666 134.1,1.23007666 C146.85,1.23007666 154.35,8.91906319 154.35,21.9311942 C154.35,31.098832 150.9,39.8228744 142.8,51.9478147 L129.45,71.7617416 L156,71.7617416 L156,82.5558957 L113.25,82.5558957 L113.25,82.7037609 Z" id="Path" fill="url(#linearGradient-3)"></path>
                <polygon id="Path" fill="url(#linearGradient-4)" points="191.32304 20.3741664 173.062945 82.7037609 160.5 82.7037609 186.356295 1.23007666 196.143705 1.23007666 222 82.7037609 209.583135 82.7037609"></polygon>
            </g>
        </g>
    </g>
</svg>