<?xml version="1.0" encoding="UTF-8"?>
<svg width="16px" height="16px" viewBox="0 0 8 8" version="1.1" xmlns="http://www.w3.org/2000/svg" xmlns:xlink="http://www.w3.org/1999/xlink">
    <!-- Generator: Sketch 52.3 (67297) - http://www.bohemiancoding.com/sketch -->
    <title>Group 3 Copy</title>
    <desc>Created with Sketch.</desc>
    <g id="TPP-Dashboard" stroke="none" stroke-width="1" fill="currentColor" fill-rule="evenodd">
        <g id="List-of-users" transform="translate(-957.000000, -572.000000)" fill="currentColor">
            <g id="Group-3-Copy" transform="translate(957.000000, 572.000000)">
                <g id="icons8-euro_98">
                    <path d="M4.81272603,0 C2.83063873,0 1.19372606,1.232465 1.00650761,2.8 L0,2.8 L0,3.6 L0.987225853,3.6 L0.987225853,4.4 L0,4.4 L0,5.2 L1.00650761,5.2 C1.19372606,6.7675352 2.83063873,8 4.81272603,8 C5.94251322,8 6.96358266,7.6001536 7.66353368,6.9664064 L6.92793443,6.4335936 C6.4076743,6.9046464 5.65640332,7.2 4.81272603,7.2 C3.36517449,7.2 2.18200928,6.3316508 2.00144616,5.2 L5.42974219,5.2 L5.42974219,4.4 L1.97445171,4.4 L1.97445171,3.6 L5.42974219,3.6 L5.42974219,2.8 L2.00144616,2.8 C2.18200928,1.66834936 3.36517449,0.8 4.81272603,0.8 C5.80368755,0.8 6.67010509,1.2089454 7.17859749,1.82890624 L8,1.38593752 C7.31493634,0.55069832 6.13977082,0 4.81272603,0 Z" id="Path"></path>
                </g>
            </g>
        </g>
    </g>
</svg>
