<?xml version="1.0" encoding="UTF-8"?>
<svg width="22px" height="22px" viewBox="0 0 22 22" version="1.1" xmlns="http://www.w3.org/2000/svg" xmlns:xlink="http://www.w3.org/1999/xlink">
    <!-- Generator: Sketch 52.3 (67297) - http://www.bohemiancoding.com/sketch -->
    <title>icons8-help</title>
    <desc>Created with Sketch.</desc>
    <g id="TPP-Dashboard" stroke="none" stroke-width="1" fill="currentColor" fill-rule="evenodd">
        <g id="Upload-Files" transform="translate(-39.000000, -285.000000)" fill="#2C2E2F" fill-rule="nonzero">
            <g id="icons8-help" transform="translate(39.000000, 285.000000)">
                <path d="M11,0 C4.93053239,0 0,4.93053239 0,11 C0,17.0694676 4.93053239,22 11,22 C17.0694676,22 22,17.0694676 22,11 C22,4.93053239 17.0694676,0 11,0 Z M11,0.956521739 C16.5525245,0.956521739 21.0434783,5.44747548 21.0434783,11 C21.0434783,16.5525245 16.5525245,21.0434783 11,21.0434783 C5.44747548,21.0434783 0.956521739,16.5525245 0.956521739,11 C0.956521739,5.44747548 5.44747548,0.956521739 11,0.956521739 Z M11.138247,5.0254753 C9.354334,5.02547578 8.17150543,6.10640513 7.91372283,7.7530573 C7.8969837,7.85636117 7.94773148,7.92452865 8.05103583,7.94174604 L9.13179348,8.13136883 C9.23509783,8.14858622 9.30326483,8.09688191 9.32048222,7.99405583 C9.52613439,6.94762104 10.1433377,6.3640457 11.1036855,6.3640457 C12.081729,6.3640457 12.7673231,6.98192861 12.7673231,7.95949383 C12.7673236,8.54297209 12.5618656,8.93735796 11.9621265,9.76044491 L10.8122453,11.3381453 C10.4521149,11.8360148 10.2984884,12.1963696 10.2984884,12.8831522 L10.2984884,13.5855978 C10.2984884,13.6884239 10.3666033,13.7575178 10.4694293,13.7556047 L11.6015623,13.7556047 C11.7043888,13.7556047 11.7725032,13.6874899 11.7725032,13.5846638 L11.7725032,13.0363449 C11.7725032,12.4533449 11.8760917,12.2130413 12.2190047,11.7500847 L13.3679518,10.1714503 C13.9514301,9.36510252 14.2422725,8.76531126 14.2422725,7.94174604 C14.2422725,6.2434417 12.9900731,5.0254753 11.138247,5.0254753 Z M10.3844261,15.0614812 C10.2811218,15.0614807 10.2125511,15.1305297 10.2125511,15.2333557 L10.2125511,16.7083051 C10.2125511,16.8111312 10.2806435,16.879246 10.3844261,16.879246 L11.688434,16.879246 C11.7907819,16.879246 11.859375,16.8116094 11.859375,16.7083051 L11.859375,15.2333557 C11.859375,15.1310084 11.7912601,15.0614812 11.688434,15.0614812 L10.3844261,15.0614812 Z" id="Shape"></path>
            </g>
        </g>
    </g>
</svg>
