<svg xmlns="http://www.w3.org/2000/svg" width="550" height="338" viewBox="0 0 550 338">
  <g fill="none">
    <ellipse cx="276" cy="290" fill="#3F4B67" rx="247" ry="15"/>
    <ellipse cx="276.5" cy="289" fill="#3F4B67" opacity=".1" rx="210.5" ry="10"/>
    <ellipse cx="103.5" cy="329" fill="#3F4B67" rx="103.5" ry="9"/>
    <ellipse cx="103.5" cy="329" fill="#3F4B67" opacity=".1" rx="88.5" ry="6"/>
    <rect width="367" height="288" x="96" fill="#3F4B67"/>
    <path fill="#F2F2F2" d="M274.900426 39L184.104219 39C183.709997 39.0007518 183.345365 38.8103183 183.148013 38.5006083 182.950662 38.1908982 182.950662 37.8091018 183.148013 37.4993917 183.345365 37.1896817 183.709997 36.9992482 184.104219 37L274.900426 37C275.508078 37.0011644 276 37.4485381 276 38 276 38.5514619 275.508078 38.9988356 274.900426 39L274.900426 39zM374.898175 51L232.101824 51C231.493304 51 231 50.5522847 231 50 231 49.4477153 231.493304 49 232.101824 49L374.898175 49C375.291819 49 375.655561 49.1905989 375.852383 49.5 376.049206 49.8094011 376.049206 50.1905989 375.852383 50.5 375.655561 50.8094011 375.291819 51 374.898175 51zM274.898104 63L184.101896 63C183.493336 63 183 62.5522847 183 62 183 61.4477153 183.493336 61 184.101896 61L274.898104 61C275.506664 61 276 61.4477153 276 62 276 62.5522847 275.506664 63 274.898104 63L274.898104 63zM373.898104 63L283.101896 63C282.493336 63 282 62.5522847 282 62 282 61.4477153 282.493336 61 283.101896 61L373.898104 61C374.506664 61 375 61.4477153 375 62 375 62.5522847 374.506664 63 373.898104 63L373.898104 63zM275.898104 75L185.101896 75C184.493336 75 184 74.5522847 184 74 184 73.4477153 184.493336 73 185.101896 73L275.898104 73C276.506664 73 277 73.4477153 277 74 277 74.5522847 276.506664 75 275.898104 75zM275.898104 88L185.101896 88C184.493336 88 184 87.5522847 184 87 184 86.4477153 184.493336 86 185.101896 86L275.898104 86C276.506664 86 277 86.4477153 277 87 277 87.5522847 276.506664 88 275.898104 88L275.898104 88zM316.906249 39L291.093751 39C290.489689 39 290 38.5522847 290 38 290 37.4477153 290.489689 37 291.093751 37L316.906249 37C317.510311 37 318 37.4477153 318 38 318 38.5522847 317.510311 39 316.906249 39L316.906249 39zM316.906249 75L291.093751 75C290.489689 75 290 74.5522847 290 74 290 73.4477153 290.489689 73 291.093751 73L316.906249 73C317.510311 73 318 73.4477153 318 74 318 74.5522847 317.510311 75 316.906249 75L316.906249 75zM316.904125 87L291.095875 87C290.704632 87.0007518 290.342755 86.8103183 290.146895 86.5006083 289.951035 86.1908982 289.951035 85.8091018 290.146895 85.4993917 290.342755 85.1896817 290.704632 84.9992482 291.095875 85L316.904125 85C317.295368 84.9992482 317.657245 85.1896817 317.853105 85.4993917 318.048965 85.8091018 318.048965 86.1908982 317.853105 86.5006083 317.657245 86.8103183 317.295368 87.0007518 316.904125 87L316.904125 87zM359.903944 87L334.091445 87C333.488285 86.9988356 333 86.5514619 333 86 333 85.4485381 333.488285 85.0011644 334.091445 85L359.903944 85C360.295252 84.9992482 360.657189 85.1896817 360.853081 85.4993917 361.048973 85.8091018 361.048973 86.1908982 360.853081 86.5006083 360.657189 86.8103183 360.295252 87.0007518 359.903944 87zM209.906249 51L184.093751 51C183.489689 51 183 50.5522847 183 50 183 49.4477153 183.489689 49 184.093751 49L209.906249 49C210.510311 49 211 49.4477153 211 50 211 50.5522847 210.510311 51 209.906249 51zM274.898104 217L184.101896 217C183.493336 217 183 216.552285 183 216 183 215.447715 183.493336 215 184.101896 215L274.898104 215C275.506664 215 276 215.447715 276 216 276 216.552285 275.506664 217 274.898104 217zM274.898104 241L184.101896 241C183.493336 241 183 240.552285 183 240 183 239.447715 183.493336 239 184.101896 239L274.898104 239C275.506664 239 276 239.447715 276 240 276 240.552285 275.506664 241 274.898104 241zM274.895836 254L184.104164 254C183.709961 254.000752 183.345347 253.810318 183.148006 253.500608 182.950665 253.190898 182.950665 252.809102 183.148006 252.499392 183.345347 252.189682 183.709961 251.999248 184.104164 252L274.895836 252C275.290039 251.999248 275.654653 252.189682 275.851994 252.499392 276.049335 252.809102 276.049335 253.190898 275.851994 253.500608 275.654653 253.810318 275.290039 254.000752 274.895836 254zM313.906249 242L288.093751 242C287.489689 242 287 241.552285 287 241 287 240.447715 287.489689 240 288.093751 240L313.906249 240C314.510311 240 315 240.447715 315 241 315 241.552285 314.510311 242 313.906249 242zM313.906252 254L288.093748 254C287.489688 254 287 253.552285 287 253 287 252.447715 287.489688 252 288.093748 252L313.906252 252C314.510312 252 315 252.447715 315 253 315 253.552285 314.510312 254 313.906252 254L313.906252 254zM356.906249 242L331.093751 242C330.489689 242 330 241.552285 330 241 330 240.447715 330.489689 240 331.093751 240L356.906249 240C357.510311 240 358 240.447715 358 241 358 241.552285 357.510311 242 356.906249 242L356.906249 242zM374.898176 229L232.101824 229C231.493304 229 231 228.552285 231 228 231 227.447715 231.493304 227 232.101824 227L374.898176 227C375.506696 227 376 227.447715 376 228 376 228.552285 375.506696 229 374.898176 229L374.898176 229zM209.906249 229L184.093751 229C183.489689 229 183 228.552285 183 228 183 227.447715 183.489689 227 184.093751 227L209.906249 227C210.510311 227 211 227.447715 211 228 211 228.552285 210.510311 229 209.906249 229L209.906249 229zM374.898196 266L232.104129 266C231.709939 266.000752 231.345337 265.810318 231.148001 265.500608 230.950666 265.190898 230.950666 264.809102 231.148001 264.499392 231.345337 264.189682 231.709939 263.999248 232.104129 264L374.898196 264C375.506705 264 376 264.447716 376 265 376 265.552284 375.506705 266 374.898196 266L374.898196 266zM209.904125 266L184.095875 266C183.704632 266.000752 183.342755 265.810318 183.146895 265.500608 182.951035 265.190898 182.951035 264.809102 183.146895 264.499392 183.342755 264.189682 183.704632 263.999248 184.095875 264L209.904125 264C210.295368 263.999248 210.657245 264.189682 210.853105 264.499392 211.048965 264.809102 211.048965 265.190898 210.853105 265.500608 210.657245 265.810318 210.295368 266.000752 209.904125 266L209.904125 266z"/>
    <polygon fill="#13BF9F" points="252.924 117 218 151.5 252.924 186 260.782 178.139 234.371 151.718 261 125.079"/>
    <polygon fill="#13BF9F" points="306.076 117 341 151.5 306.076 186 298.218 178.139 324.63 151.718 298 125.079"/>
    <circle cx="105.5" cy="7.5" r="4.5" fill="#13BF9F"/>
    <circle cx="117.5" cy="7.5" r="4.5" fill="#13BF9F"/>
    <circle cx="129.5" cy="7.5" r="4.5" fill="#13BF9F"/>
    <rect width="367" height="1" x="96" y="15" fill="#000" opacity=".1"/>
    <path fill="#F2F2F2" d="M550,216.900618 C550,248.1047 531.419819,259 508.5,259 C485.580181,259 467,248.1047 467,216.900618 C467,185.696537 508.5,146 508.5,146 C508.5,146 550,185.696537 550,216.900618 Z"/>
    <polygon fill="#3F3D56" points="506.779 253.875 507.206 227.845 525 195.642 507.273 223.762 507.466 212.057 519.729 188.759 507.517 208.96 507.517 208.96 507.862 187.909 520.994 169.361 507.916 184.599 508.132 146 506.775 197.099 506.886 194.991 493.535 174.774 506.672 199.037 505.429 222.547 505.392 221.923 490 200.648 505.345 224.127 505.189 227.067 505.161 227.112 505.174 227.353 502.018 287 506.235 287 506.741 256.191 522.048 232.769"/>
    <path fill="#2F2E41" d="M59.4433152 286.873332C58.1522239 287.581114 56.7902587 288.155512 55.379155 288.587358 52.8551819 289.266302 50.1575114 289.017219 47.6081188 289.596797 46.5643347 289.834091 45.42831 290.330438 45.0963658 291.333397 44.8528805 292.069069 45.1177649 292.863494 45.3714181 293.595828 48.1884433 301.729079 49.8863703 310.364632 54.3788997 317.731709 56.2669436 320.825918 58.6103457 323.627437 61.3327008 326.044925 62.3540124 326.951371 63.5113964 327.838116 64.8787111 327.980331 66.1612897 328.113737 67.4184169 327.561668 68.1746702 326.532906 68.9309235 325.504144 69.0708669 324.155721 68.5415764 322.997587 68.1387609 322.116186 67.3899869 321.433474 66.9070764 320.592006 66.3834262 319.520124 66.0763297 318.358239 66.0028684 317.170976 65.5590239 313.692397 65.1314498 310.056722 66.3554215 306.764484 67.176349 304.556358 68.6822209 302.673887 69.9367158 300.673077 71.1912108 298.672267 72.2335188 296.38039 71.9543717 294.045078 71.7638771 292.451407 70.9744221 290.992963 70.1404693 289.614341 69.3048516 288.233002 67.6533258 284.520818 65.9745218 284.059843 64.2318486 283.581339 60.963112 286.106331 59.4433152 286.873332zM104.355729 315.855409C104.381831 316.65707 104.271097 317.457286 104.028378 318.221001 103.506381 319.61311 102.211489 320.567037 101.542527 321.893462 100.612118 323.738259 101.033823 325.968156 101.650243 327.942671 102.036695 329.180555 102.543583 330.46863 103.581377 331.234199 104.468885 331.789824 105.47813 332.116342 106.520102 332.184956 115.422545 333.429335 124.465854 332.715372 133.449443 332.976094 135.08682 333.023612 136.820357 333.081514 138.249667 332.273347 139.678978 331.46518 140.562609 329.433426 139.590498 328.101856 138.717572 326.906156 136.991586 326.917288 135.522325 326.846823 131.696328 326.650505 128.05278 325.134622 125.199969 322.55225 124.63735 322.066803 124.149387 321.499503 123.752109 320.868986 123.44658 320.309348 123.19305 319.722323 122.994771 319.115436 121.735411 315.670094 120.237198 312.318677 118.511266 309.086095 118.028159 308.181336 117.481153 307.239109 116.583321 306.7549 115.926076 306.453108 115.212831 306.295837 114.490853 306.293507 112.251796 306.146945 106.453704 305.377318 104.7223 307.135807 103.122534 308.760626 104.391198 313.791691 104.355729 315.855409z"/>
    <circle cx="119" cy="105" r="14" fill="#FBBEBE"/>
    <path fill="#FBBEBE" d="M106.219815,116.507455 C105.402715,118.741503 104.016737,120.839642 102,122.041832 L121,126 C120.31086,123.16795 120.220059,120.218505 120.733637,117.347836 C120.92219,116.652983 120.96097,115.924637 120.847306,115.213 C120.490041,113.805209 118.938298,113.127586 117.549883,112.804354 C114.082172,111.997043 111.015572,111.56412 107.793093,110 C106.808098,111.722085 106.946014,114.52195 106.219815,116.507455 Z"/>
    <path fill="#2F2E41" d="M101.585601 117.347364C105.817005 115.43672 110.692077 115.563829 114.817711 117.692368 117.306749 119.001213 119.367714 120.976852 121.392562 122.926049 123.259011 124.722767 125.250044 126.780026 125.382515 129.364471 125.446682 130.616485 125.055064 131.840944 124.857332 133.078968 124.128905 138.326887 126.80713 143.460301 131.533188 145.874733 133.075514 148.438477 133.393829 151.544576 133.417485 154.534688 133.50711 165.863991 129.924941 177.333049 132.482279 188.371586 133.082704 190.963262 134.013952 193.473516 134.532658 196.082697 135.204512 199.46226 135.171346 202.93734 135.52285 206.364848 135.904053 210.076484 136.735866 213.728142 138 217.239521 137.155102 218.580373 135.396721 219.094524 133.813163 218.98593 132.229604 218.877335 130.748857 218.191624 129.335828 217.470096 122.493671 213.976317 116.226743 209.369352 109.140151 206.400084 104.451724 204.43564 99.45703 203.212012 94.9087128 200.943171 90.3603956 198.67433 86.1303588 195.073561 84.7396636 190.192963 84.1383327 188.082629 84.1013151 185.859098 84.0684929 183.665365 83.9302572 174.425465 83.8018172 165.0847 85.8173929 156.06529 87.594876 148.111344 91.021194 140.502287 91.7686816 132.387195 92.0119918 129.745693 92.0171852 126.917931 93.4962362 124.713775 95.5867773 121.598332 100.100625 120.791501 101.585601 117.347364zM110.049705 105.279236C110.866578 104.207093 112.442043 104.060882 113.747058 104.378023 115.052073 104.695165 116.255376 105.372004 117.573362 105.62915 118.179135 105.802206 118.829336 105.710307 119.364299 105.37602 119.825032 104.919436 120.100532 104.306721 120.137212 103.657052 120.598872 100.892922 120.706744 98.0806636 120.458196 95.2889463 120.389566 94.8972986 120.415621 94.4947813 120.534159 94.1154024 120.860458 93.3241615 121.855957 93.1358314 122.669021 92.8820027 125.428543 91.9433718 127.203985 89.2408452 126.98119 86.3181415 126.960858 85.6366885 126.676364 84.9902915 126.188551 84.5171947 125.626268 84.0561191 124.83927 84.0277896 124.113972 84.0219254 120.387504 83.9918113 116.660961 83.992718 112.934344 84.0246456 111.555093 84.0364656 110.106597 84.0706353 108.910926 84.7626171 108.026909 85.2742371 107.369516 86.0977216 106.575896 86.7421828 104.506044 88.4230327 101.706359 88.7650371 99.1881566 89.6265045 97.958872 89.9787745 96.8425975 90.6486407 95.9502684 91.5695318 95.1128229 92.5322948 94.7101879 93.963914 95.2361373 95.1288059 95.5061473 95.6143358 95.807721 96.0813946 96.1388904 96.5269343 97.6242839 98.9170074 96.6354107 102.017117 96.8572224 104.827269 97.1342035 108.336375 102.294721 114.028836 105.793989 114.859215 111.443324 116.199803 108.179561 107.582698 110.049705 105.279236zM102.719738 260.751111C103.081476 263.343564 103.545388 265.944961 103.421373 268.559746 103.248233 272.210273 101.936241 275.727569 101.693697 279.374116 101.512542 282.097691 101.931527 284.850718 101.554598 287.554022 101.313244 289.284986 100.750722 290.953589 100.402489 292.666129 99.2881205 298.305057 100.51042 304.156201 103.787753 308.871373 104.026036 309.270736 104.364804 309.600189 104.770061 309.826673 105.158767 309.971159 105.574802 310.026391 105.987579 309.988309 110.08176 309.904702 114.165015 309.532334 118.20714 308.87396 118.503029 308.861784 118.783358 308.737671 118.991777 308.526568 119.082925 308.386606 119.141192 308.227693 119.16218 308.061828 119.911654 304.19581 118.202509 300.319407 117.767891 296.405137 117.303809 292.225551 118.303231 288.037211 119.295259 283.951275 119.745097 281.935718 120.307088 279.947027 120.978591 277.994543 121.458096 276.680531 122.037192 275.40249 122.45279 274.066736 123.041409 271.9683 123.399874 269.811632 123.521809 267.635092 123.81038 264.200611 123.963266 260.758264 123.980468 257.308051 124.078494 254.038565 123.80731 250.768452 123.172096 247.560192 122.260371 243.49834 120.393325 239.726508 118.542634 236 117.553075 236.237984 116.62407 236.681049 115.815303 237.300728 113.43042 238.850674 110.940308 240.231151 108.363235 241.432032 106.631758 242.239122 103.255073 242.812331 102.156153 244.494142 101.072433 246.152695 101.771655 249.536537 101.854453 251.365735 101.996546 254.505432 102.284974 257.633891 102.719738 260.751111z"/>
    <path fill="#000" d="M102.719738,260.751111 C103.081476,263.343564 103.545388,265.944961 103.421373,268.559746 C103.248233,272.210273 101.936241,275.727569 101.693697,279.374116 C101.512542,282.097691 101.931527,284.850718 101.554598,287.554022 C101.313244,289.284986 100.750722,290.953589 100.402489,292.666129 C99.2881205,298.305057 100.51042,304.156201 103.787753,308.871373 C104.026036,309.270736 104.364804,309.600189 104.770061,309.826673 C105.158767,309.971159 105.574802,310.026391 105.987579,309.988309 C110.08176,309.904702 114.165015,309.532334 118.20714,308.87396 C118.503029,308.861784 118.783358,308.737671 118.991777,308.526568 C119.082925,308.386606 119.141192,308.227693 119.16218,308.061828 C119.911654,304.19581 118.202509,300.319407 117.767891,296.405137 C117.303809,292.225551 118.303231,288.037211 119.295259,283.951275 C119.745097,281.935718 120.307088,279.947027 120.978591,277.994543 C121.458096,276.680531 122.037192,275.40249 122.45279,274.066736 C123.041409,271.9683 123.399874,269.811632 123.521809,267.635092 C123.81038,264.200611 123.963266,260.758264 123.980468,257.308051 C124.078494,254.038565 123.80731,250.768452 123.172096,247.560192 C122.260371,243.49834 120.393325,239.726508 118.542634,236 C117.553075,236.237984 116.62407,236.681049 115.815303,237.300728 C113.43042,238.850674 110.940308,240.231151 108.363235,241.432032 C106.631758,242.239122 103.255073,242.812331 102.156153,244.494142 C101.072433,246.152695 101.771655,249.536537 101.854453,251.365735 C101.996546,254.505432 102.284974,257.633891 102.719738,260.751111 Z" opacity=".1"/>
    <path fill="#2F2E41" d="M83.5447733,205 C81.6692425,210.083905 84.4261328,215.577554 86.8213078,220.435188 C92.7221894,232.40275 96.8198901,245.172765 100.89572,257.888071 C101.201024,258.840523 101.506085,259.879632 101.165724,260.819963 C100.871798,261.488074 100.39465,262.05789 99.7903011,262.462511 C96.9800025,264.611589 93.4016097,265.376957 90.0539293,266.501305 C86.8186679,267.588368 83.7200571,269.050825 80.8206288,270.859162 C78.3947748,272.372578 76.1222919,274.119652 73.8542691,275.863609 L66.6343898,281.415236 C66.1669558,281.733265 65.7585141,282.131332 65.4276094,282.591363 C64.7312605,283.691291 65.0164876,285.127248 65.3631803,286.38404 C66.2813076,289.71176 67.4634209,292.95986 68.8981184,296.097011 C69.1341744,296.784672 69.5836152,297.377677 70.180071,297.788458 C71.3069854,298.398174 72.6853428,297.589703 73.5458791,296.636593 C74.4064154,295.683484 75.1507181,294.497433 76.3637767,294.088264 C77.575412,293.679575 78.9089645,294.174503 80.1743785,293.995654 C82.2209549,293.70639 83.579698,291.808253 85.0549282,290.351086 C91.0822161,284.397607 101.145184,284.829513 107.775438,279.565708 C108.73386,278.702233 109.748522,277.904205 110.812642,277.176956 C111.933517,276.509881 113.204639,276.14376 114.367579,275.55417 C117.904711,273.760907 120.128397,270.053553 121.319584,266.250977 C122.510772,262.448402 122.850489,258.434342 123.706483,254.541365 C124.149005,252.528829 124.731513,250.537959 124.928364,248.486241 C125.054975,246.577923 125.013694,244.66207 124.805004,242.761075 L122.412612,212.964823 C122.217833,210.538882 122.022728,208.110109 121.644542,205.706222 C114.539386,205.961953 107.439318,206.24975 100.330115,206.334385 C94.6731605,206.401702 88.9122603,206.799854 83.5447733,205 Z"/>
    <path fill="#2F2E41" d="M80.6899636,212.736025 C81.6592134,214.303281 84.0183043,214.270907 85.6427855,213.411657 C87.2672667,212.552407 88.5293055,211.108861 90.15761,210.256959 C92.3456704,209.112202 94.9348721,209.155251 97.4004625,209.225267 C101.303975,209.336115 105.255411,209.454098 109.011108,210.529647 C112.895646,211.642099 116.677233,213.783966 120.693848,213.356672 C121.392783,213.282318 122.157033,213.08079 122.537411,212.486574 C122.760302,212.0561 122.865141,211.573708 122.84115,211.088995 L122.972487,207.56082 C123.052988,206.95063 122.955944,206.330059 122.693089,205.774146 C122.355994,205.311526 121.893968,204.955852 121.361843,204.749335 C115.64479,201.966754 109.124926,201.448641 102.776949,201.229996 C99.5501262,201.118853 96.3219438,201.07314 93.092402,201.092856 C90.351855,201.109657 87.0618261,200.710982 84.397388,201.447231 C80.8215403,202.435342 78.8758254,209.802613 80.6899636,212.736025 Z"/>
    <path fill="#13BF9F" d="M117.44984,121.163079 C109.945588,121.096487 103.145173,116.134384 95.6415939,116.013504 C94.7350258,115.950682 93.8266985,116.107688 92.9935633,116.471219 C91.9479688,116.998871 91.2605238,118.019145 90.4662516,118.880804 C88.2475674,121.287713 85.0346913,122.572844 82.755353,124.922163 C80.618153,127.124963 79.4295609,130.4069 80.2733305,133.360164 C81.1171001,136.313428 84.3016428,138.578731 87.2849793,137.868758 C88.4869418,133.97125 90.9676739,130.594657 94.3250302,128.28635 C96.0719302,127.163847 97.9129796,126.195685 99.8273651,125.392811 C103.199831,123.862107 106.970997,122.302143 110.491843,123.44956 C111.790304,123.940775 113.014667,124.609632 114.130093,125.437099 L120,129.387246 C119.316032,126.684617 118.701001,123.653595 117.44984,121.163079 Z"/>
    <path fill="#13BF9F" d="M86.4124354,134.089918 C85.4187104,135.330702 86.850217,137.128504 86.6311107,138.703522 C86.4855459,139.749992 85.6251387,140.549023 85.2668384,141.542864 C84.8956986,142.572311 85.0925093,143.712635 84.9517532,144.797922 C84.810501,145.587132 84.601595,146.362699 84.3273514,147.116024 C83.6969131,149.366462 83.256863,151.666023 83.0118619,153.99035 L81.701994,163.780811 C81.474692,165.254222 81.3363488,166.74001 81.2877175,168.230087 C81.3537488,169.343775 81.2793657,170.461353 81.0663244,171.556433 C80.7762721,172.62637 80.134026,173.562381 79.7019738,174.583168 C79.2699216,175.603956 79.0696536,176.838711 79.6533134,177.780897 C77.698751,179.410338 77.1175788,182.610444 78.4842702,184.757787 C78.7444415,185.092352 78.9479436,185.467416 79.0866507,185.868002 C79.1621884,186.427981 79.0698531,186.997799 78.8213571,187.505177 L77.4968965,191.037316 C77.1578753,191.94144 77.0506531,193.317923 77.9932056,193.524304 C77.2124823,194.335828 76.6042284,195.297338 76.2051911,196.350746 C75.8118415,197.425486 75.991235,198.626649 76.6813985,199.53928 C77.0104675,199.828244 77.2906646,200.168586 77.5111317,200.547118 C77.6406648,201.074466 77.6072204,201.628745 77.4152213,202.136658 C77.014924,203.695807 77.2759474,205.351208 78.1365325,206.711189 C79.0380285,208.067561 80.6558688,208.761652 82.2589559,208.479805 C84.9083913,207.881704 87.289164,206.937537 89.960557,207.428145 C95.7124386,208.4845 101.482826,209.545419 107.053713,211.325597 C113.41183,213.357349 119.568223,216.336817 126.213199,216.962223 C126.650387,217.051745 127.105162,216.980945 127.494528,216.762743 C127.833115,216.441614 128.043672,216.008348 128.087051,215.5435 C128.771635,212.330778 129.456228,209.118058 130.140829,205.90534 C130.968457,202.344172 131.59871,198.739923 132.028701,195.109099 C132.262488,192.765703 132.32913,190.409205 132.395624,188.055094 L132.924899,169.317202 C133.172889,166.555642 132.804923,163.773427 131.847585,161.171562 L128.802956,151.44347 C127.065477,145.891929 123.079608,140.968945 121.660476,135.327467 C120.762304,131.756927 120.098796,127.92519 117.690135,125.142237 C114.256258,121.174737 108.315195,120.557634 103.115178,121.239776 C100.76601,121.547946 98.39673,122.079758 96.3647136,123.299152 C94.0150655,124.709146 92.2840998,126.930277 90.6094727,129.100386 C89.2293492,130.888866 87.8245992,132.326664 86.4124354,134.089918 Z"/>
    <path fill="#FBBEBE" d="M97.4726901,189.173966 C97.8897669,191.025946 98.7656803,192.733573 99.3018198,194.552765 C100.200115,197.600704 100.12387,200.883321 101.020406,203.931809 C101.396705,205.211341 101.941907,206.439857 102.211991,207.747518 C102.841679,210.796335 101.922281,213.950433 100.780197,216.83705 C99.6381137,219.723666 98.2472219,222.569871 97.8764715,225.663386 C97.6153402,227.842275 97.9904668,230.302524 99.6213097,231.71653 C101.31443,233.184531 103.774907,233.085117 105.980093,232.889799 C106.771776,232.867002 107.553218,232.699438 108.287938,232.39493 C109.97437,231.573342 110.68467,229.518289 111.078879,227.640488 C112.399972,221.347481 112.022557,214.824745 111.63864,208.398516 L110.63463,191.592679 C110.441339,188.357199 110.234252,185.054724 109.266091,181.948088 C108.913909,180.818018 108.300061,178.534403 107.297682,177.812823 C106.304889,177.098139 103.469742,177.066309 102.240507,177.006865 C96.4733807,176.72796 96.5380319,185.017214 97.4726901,189.173966 Z"/>
    <path fill="#2F2E41" d="M104.95088,128.35485 C103.731611,127.72277 102.19546,127.995286 101.016904,128.699006 C99.8789557,129.470401 98.8823027,130.428358 98.0698483,131.531638 C95.43516,134.715377 92.6460694,138.368553 93.0368273,142.466069 C93.1833387,144.002384 93.7775515,145.456347 94.1804196,146.947067 C95.9468272,153.483531 93.9935163,160.396595 94.2176384,167.159292 C94.3471442,171.066976 95.2060586,174.910623 96.0614544,178.727606 C96.2360254,179.506584 96.5156303,180.408348 97.2768342,180.670654 C97.8486525,180.867701 98.466301,180.614369 99.0322419,180.401337 C103.311116,178.836087 108.091984,179.432615 111.844712,182 C113.258553,181.253177 112.72877,178.891622 112.411793,177.336518 C111.470013,172.716085 112.74844,167.949561 114.301045,163.493643 C115.853649,159.037726 117.711327,154.587437 117.968567,149.880758 C118.260025,144.547842 116.473918,139.342644 114.711616,134.294927 C114.326953,133.193136 113.906571,132.037783 113.014706,131.276587 C112.251185,130.714518 111.376159,130.318764 110.447132,130.115331 C108.575271,129.567617 106.680069,129.251279 104.95088,128.35485 Z"/>
  </g>
</svg>
