<?xml version="1.0" encoding="UTF-8"?>
<svg width="50px" height="52px" viewBox="0 0 50 52" version="1.1" xmlns="http://www.w3.org/2000/svg" xmlns:xlink="http://www.w3.org/1999/xlink">
    <title>icons8-paint_roller</title>
    <g id="Page-1" stroke="none" stroke-width="1" fill="none" fill-rule="evenodd">
        <g id="Artboard" transform="translate(-345.000000, -450.000000)" fill="#0E6EB4" fill-rule="nonzero">
            <g id="icons8-paint_roller" transform="translate(345.000000, 450.000000)">
                <path d="M2.17391304,0 C0.985054348,0 0,0.981770833 0,2.16666667 L0,15.1666667 C0,16.3515625 0.985054348,17.3333333 2.17391304,17.3333333 L44.5652174,17.3333333 C45.7540761,17.3333333 46.7391304,16.3515625 46.7391304,15.1666667 L46.7391304,9.75 L47.826087,9.75 L47.826087,19.703125 L23.6752717,24.9505208 C23.1827446,25.0605474 22.8303326,25.496419 22.826087,26 L22.826087,30.3333333 L20.6521739,30.3333333 C19.4633152,30.3333333 18.4782609,31.3151042 18.4782609,32.5 L18.4782609,49.8333333 C18.4782609,51.0182292 19.4633152,52 20.6521739,52 L27.173913,52 C28.3627717,52 29.3478261,51.0182292 29.3478261,49.8333333 L29.3478261,32.5 C29.3478261,31.3151042 28.3627717,30.3333333 27.173913,30.3333333 L25,30.3333333 L25,26.8802083 L49.1508152,21.6328125 C49.6433424,21.522787 49.9957543,21.0869143 50,20.5833333 L50,8.66666667 C50,8.06998725 49.5117185,7.58333333 48.9130435,7.58333333 L46.7391304,7.58333333 L46.7391304,2.16666667 C46.7391304,0.981770833 45.7540761,0 44.5652174,0 L2.17391304,0 Z M2.17391304,2.16666667 L44.5652174,2.16666667 L44.5652174,8.328125 C44.5015283,8.53971408 44.5015283,8.75976617 44.5652174,8.97135417 L44.5652174,15.1666667 L2.17391304,15.1666667 L2.17391304,2.16666667 Z M20.6521739,32.5 L27.173913,32.5 L27.173913,49.8333333 L20.6521739,49.8333333 L20.6521739,32.5 Z" id="Shape"></path>
            </g>
        </g>
    </g>
</svg>