<?xml version="1.0" encoding="UTF-8"?>
<svg width="50px" height="51px" viewBox="0 0 50 51" version="1.1" xmlns="http://www.w3.org/2000/svg" xmlns:xlink="http://www.w3.org/1999/xlink">
    <title>icons8-developer</title>
    <g id="Page-1" stroke="none" stroke-width="1" fill="none" fill-rule="evenodd">
        <g id="Artboard" transform="translate(-646.000000, -448.000000)" fill="#0E6EB4" fill-rule="nonzero">
            <g id="icons8-developer" transform="translate(646.000000, 448.000000)">
                <path d="M22.3744371,0 C14.6749011,0 8.99805355,2.64794975 5.32724693,6.79834038 C1.65644137,10.9528811 0,16.5310061 0,22.3125 C0,26.9941406 1.4525069,31.3520513 3.91635861,34.9213872 C6.14714326,38.1586919 7.4581457,41.9895017 7.4581457,45.8991702 L7.4581457,51 L9.58904447,51 L9.58904447,45.8991702 C9.58904447,41.5205078 8.12821321,37.2788091 5.67268586,33.7177734 C3.44606286,30.4887701 2.13089877,26.5541997 2.13089877,22.3125 C2.13089877,16.9377439 3.67080662,11.8908689 6.92542101,8.20947319 C10.1800365,4.52392631 15.1576828,2.125 22.3744371,2.125 C29.620325,2.125 34.3149614,4.22924831 37.4155864,7.44580131 C40.5162103,10.6582031 42.0561171,15.0908203 42.6262998,19.8886719 L42.6512707,20.1044922 L47.7620982,28.8867188 C48.0242989,29.3598638 47.8911178,29.8330078 47.4291453,30.0944827 L42.6179754,32.4934079 L42.6179754,38.8850095 C42.6179754,42.8610843 39.338389,45.953125 35.3637631,45.5878906 L35.3471155,45.5837405 L30.8980322,45.2973638 L30.8980322,51 L33.028931,51 L33.028931,47.5634766 L35.1681541,47.7004392 C40.3580571,48.1860357 44.7488742,44.0480954 44.7488742,38.8850095 L44.7488742,33.8049314 L48.4612994,31.9538577 C49.9138063,31.1486814 50.4215601,29.2893064 49.622473,27.8532717 L49.6183114,27.8449704 L44.665636,19.3366702 C44.0330254,14.3603516 42.4098804,9.55834987 38.9513315,5.96826225 C35.4178688,2.30761719 30.0448406,0 22.3744371,0 Z M24.5053359,13.7958984 C23.9975832,13.8000486 23.5605817,14.1569827 23.4606958,14.6550296 L20.2643476,29.5300296 C20.1436524,30.1027829 20.5099007,30.6672361 21.084245,30.7917483 C21.6627499,30.9121094 22.2287699,30.546875 22.3536278,29.9699704 L25.549976,15.0949704 C25.6207282,14.7795407 25.5458143,14.4475095 25.3418798,14.1943359 C25.1379464,13.9411624 24.8299655,13.7958984 24.5053359,13.7958984 Z M15.486473,16.9875486 C15.1368725,16.9792483 14.8039195,17.1411138 14.5958245,17.4274905 L10.9208562,22.3125 L14.5958245,27.1975095 C14.9495867,27.6706546 15.6154926,27.7661138 16.0857883,27.4133298 C16.5602468,27.0605469 16.655971,26.3964844 16.3022077,25.9274905 L13.5844797,22.3125 L16.3022077,18.6975095 C16.5477608,18.3820798 16.5935421,17.9545904 16.422904,17.5935061 C16.2522648,17.2324219 15.8901793,17 15.486473,16.9875486 Z M30.2945553,16.9875486 C29.8991734,17.0124514 29.5495728,17.2490234 29.387258,17.6101077 C29.2207815,17.9670408 29.2707245,18.386231 29.5121159,18.6975095 L32.2298439,22.3125 L29.5121159,25.9274905 C29.1583536,26.3964844 29.2540768,27.0605469 29.7285353,27.4133298 C30.198831,27.7661138 30.8647369,27.6706546 31.2184991,27.1975095 L34.8934674,22.3125 L31.2184991,17.4274905 C31.0062424,17.1328125 30.6566418,16.9667969 30.2945553,16.9875486 Z" id="Shape"></path>
            </g>
        </g>
    </g>
</svg>