<?xml version="1.0" encoding="UTF-8"?>
<svg width="56px" height="52px" viewBox="0 0 56 52" version="1.1" xmlns="http://www.w3.org/2000/svg" xmlns:xlink="http://www.w3.org/1999/xlink">
    <title>icons8-open_source</title>
    <g id="Page-1" stroke="none" stroke-width="1" fill="none" fill-rule="evenodd">
        <g id="Artboard" transform="translate(-486.000000, -450.000000)" fill="#0E6EB4" fill-rule="nonzero">
            <g id="icons8-open_source" transform="translate(486.000000, 450.000000)">
                <path d="M28,0 C12.5495927,0 0,12.0213128 0,26.8213293 C0,38.2869006 7.52785357,48.098916 18.1086957,51.9298835 C18.7411682,52.1485356 19.4354623,51.8387784 19.6684783,51.237485 L25.7173913,35.9682772 C25.8410332,35.672186 25.8315217,35.3442078 25.6936144,35.0572266 C25.5604623,34.7656904 25.3084245,34.5424833 24.9945652,34.4377122 C21.7751362,33.2715674 19.4782609,30.3243185 19.4782609,26.8213293 C19.4782609,22.2979634 23.2778536,18.658316 28,18.658316 C32.7221464,18.658316 36.5217391,22.2979634 36.5217391,26.8213293 C36.5217391,30.3243185 34.2248638,33.2715674 31.0054348,34.4377122 C30.6915767,34.5424833 30.4395377,34.7656904 30.3063856,35.0572266 C30.1684783,35.3442078 30.158968,35.672186 30.2826087,35.9682772 L36.3315217,51.237485 C36.5645377,51.8387784 37.2588318,52.1485356 37.8913043,51.9298835 C48.4721464,48.098916 56,38.2869006 56,26.8213293 C56,12.0213128 43.4504073,0 28,0 Z M28,2.3322895 C42.1331522,2.3322895 53.5652174,13.2831176 53.5652174,26.8213293 C53.5652174,36.8747728 47.1501362,45.3839853 38.1195652,49.1602897 L32.9456522,36.0776032 C36.4884508,34.3374972 38.9565217,30.8891699 38.9565217,26.8213293 C38.9565217,21.0407136 34.0346464,16.3260265 28,16.3260265 C21.9653536,16.3260265 17.0434783,21.0407136 17.0434783,26.8213293 C17.0434783,30.8891699 19.5115492,34.3374972 23.0543478,36.0776032 L17.8804348,49.1602897 C8.84986383,45.3839853 2.43478261,36.8747728 2.43478261,26.8213293 C2.43478261,13.2831176 13.8668478,2.3322895 28,2.3322895 Z" id="Shape"></path>
            </g>
        </g>
    </g>
</svg>