<?xml version="1.0" encoding="UTF-8"?>
<svg width="64px" height="64px" viewBox="0 0 64 64" version="1.1" xmlns="http://www.w3.org/2000/svg" xmlns:xlink="http://www.w3.org/1999/xlink">
    <title>icons8-usb_memory_stick</title>
    <g id="Page-1" stroke="none" stroke-width="1" fill="none" fill-rule="evenodd">
        <g id="Artboard" transform="translate(-269.000000, -442.000000)" fill="#0E6EB4" fill-rule="nonzero">
            <g id="icons8-usb_memory_stick" transform="translate(269.005601, 441.999825)">
                <path d="M48.8889303,8.54259237e-05 C48.626563,0.00383233243 48.3761425,0.110454068 48.1916653,0.297050188 L36.3615873,12.2658002 L35.0783833,10.9825972 C34.3506953,10.2549082 33.3891823,9.87962519 32.4338523,9.86345619 C32.4332013,9.86345555 32.4325503,9.86345555 32.4318993,9.86345619 C31.4390543,9.84992619 30.4313673,10.2278742 29.6760403,10.9845502 L4.82643026,35.8322062 C-1.60876274,42.2674002 -1.60885744,52.7339192 4.82643026,59.1681442 C11.2615463,65.6032592 21.7262843,65.6031652 28.1623683,59.1681442 L53.0119773,34.3165812 C54.4935083,32.8337032 54.4935083,30.4010222 53.0119773,28.9181442 C53.0119779,28.9174932 53.0119779,28.9168422 53.0119773,28.9161912 L51.7287743,27.6329872 L63.6975243,15.8029092 C63.886705,15.6157293 63.9934794,15.3608669 63.9942163,15.0947371 C63.9949456,14.8286072 63.8895769,14.5731605 63.7014303,14.3849412 L49.6096333,0.293143988 C49.4187845,0.102221885 49.1588588,-0.00343901195 48.8889303,8.54259237e-05 Z M48.9084613,2.42009709 L61.5744773,15.0861132 L50.3147113,26.2208782 L49.3869773,25.2931442 C49.1361607,25.0319034 48.7637103,24.9266686 48.4132682,25.0180254 C48.0628262,25.1093822 47.7891533,25.3830551 47.6977965,25.7334971 C47.6064396,26.0839392 47.7116745,26.4563896 47.9729153,26.7072062 L51.5979153,30.3322062 C52.3149933,31.0513982 52.3159203,32.1838612 51.5979153,32.9025192 L26.7463523,57.7521282 C21.0743523,63.4220142 11.9129663,63.4226482 6.24244626,57.7521282 C6.24179526,57.7521276 6.24114426,57.7521276 6.24049326,57.7521282 C0.569781063,52.0823532 0.571592563,42.9190282 6.24244626,37.2482222 L31.0920553,12.3966592 C31.4562623,12.0318022 31.9280633,11.8574512 32.4026023,11.8634562 C32.8646253,11.8717562 33.3105193,12.0448112 33.6623683,12.3966592 L37.2873683,16.0216592 C37.5381848,16.2829 37.9106353,16.3881348 38.2610773,16.296778 C38.6115194,16.2054212 38.8851922,15.9317483 38.9765491,15.5813062 C39.0679059,15.2308642 38.9626711,14.8584138 38.7014303,14.6075972 L37.7736963,13.6798632 L48.9084613,2.42009709 Z M47.4943993,8.04705019 L44.6760403,10.8634562 L47.4943993,13.6818162 L50.3127583,10.8634562 L47.4943993,8.04705019 Z M53.1311183,13.6818162 L50.3127583,16.5001752 L53.1311183,19.3185342 L55.9494773,16.5001752 L53.1311183,13.6818162 Z M40.1955713,16.5158002 L39.3947903,16.9161912 L39.2365873,17.7990032 L39.8479153,18.4533002 L40.1955713,18.5158002 L40.9963523,18.1134562 L41.1545553,17.2306442 L40.5412743,16.5763472 L40.1955713,16.5158002 Z M43.0236963,19.3439252 L42.2229153,19.7443162 L42.0647113,20.6271282 L42.6760403,21.2814252 L43.0236963,21.3439252 L43.8244773,20.9415812 L43.9826803,20.0607222 L43.3713523,19.4044722 L43.0236963,19.3439252 Z M45.8518213,22.1720502 L45.0510403,22.5724412 L44.8928373,23.4552532 L45.5041653,24.1095502 L45.8518213,24.1720502 L46.6526023,23.7697062 L46.8108053,22.8888472 L46.1994773,22.2345502 L45.8518213,22.1720502 Z M8.91627426,38.5509562 L8.11549326,38.9533002 L7.95729026,39.8341592 L8.56861826,40.4884562 L8.91627426,40.5509562 L9.71705526,40.1505662 L9.87525826,39.2677532 L9.26197726,38.6134562 L8.91627426,38.5509562 Z M6.79322726,41.9122842 L5.99244626,42.3126752 L5.83424326,43.1954872 L6.44557126,43.8497842 L6.79322726,43.9122842 L7.59400826,43.5099412 L7.75221126,42.6290812 L7.13893026,41.9747842 L6.79322726,41.9122842 Z M16.4943993,43.0001752 C14.0209613,43.0001752 11.9943993,45.0267372 11.9943993,47.5001752 C11.9943993,49.9736132 14.0209613,52.0001752 16.4943993,52.0001752 C18.9678373,52.0001752 20.9943993,49.9736132 20.9943993,47.5001752 C20.9943993,45.0267372 18.9678373,43.0001752 16.4943993,43.0001752 Z M16.4943993,45.0001752 C17.8869613,45.0001752 18.9943993,46.1076132 18.9943993,47.5001752 C18.9943993,48.8927372 17.8869613,50.0001752 16.4943993,50.0001752 C15.1018373,50.0001752 13.9943993,48.8927372 13.9943993,47.5001752 C13.9943993,46.1076132 15.1018373,45.0001752 16.4943993,45.0001752 Z M6.00416526,45.8087692 L5.20338326,46.2111132 L5.04518026,47.0919722 L5.65650826,47.7462692 L6.00416526,47.8087692 L6.80494626,47.4083782 L6.96314926,46.5255662 L6.35182126,45.8712692 L6.00416526,45.8087692 Z M6.65650826,49.7306442 L5.85572726,50.1310342 L5.69752426,51.0138472 L6.31080526,51.6681442 L6.65650826,51.7306442 L7.45729026,51.3283002 L7.61549326,50.4474412 L7.00416526,49.7931442 L6.65650826,49.7306442 Z M25.9943993,52.3263472 L25.1936183,52.7267372 L25.0354153,53.6095502 L25.6467433,54.2638472 L25.9943993,54.3263472 L26.7951803,53.9240032 L26.9533833,53.0431442 L26.3420553,52.3888472 L25.9943993,52.3263472 Z M8.65846126,53.1642372 L7.85768026,53.5665812 L7.69947726,54.4493942 L8.31275826,55.1036912 L8.65846126,55.1642372 L9.45924326,54.7638472 L9.61744626,53.8810342 L9.00611826,53.2267372 L8.65846126,53.1642372 Z M23.1506493,55.1095502 L22.3498683,55.5118942 L22.1916653,56.3927532 L22.8029933,57.0470502 L23.1506493,57.1095502 L23.9514303,56.7072062 L24.1096333,55.8263472 L23.4983053,55.1720502 L23.1506493,55.1095502 Z M11.7483053,55.6700972 L10.9475243,56.0724412 L10.7893213,56.9552532 L11.4026023,57.6095502 L11.7483053,57.6700972 L12.5490873,57.2697062 L12.7072903,56.3868942 L12.0959613,55.7325972 L11.7483053,55.6700972 Z M19.5061183,56.7013472 L18.7053373,57.1036912 L18.5471333,57.9845502 L19.1584613,58.6388472 L19.5061183,58.7013472 L20.3068993,58.3009562 L20.4651023,57.4181442 L19.8537743,56.7638472 L19.5061183,56.7013472 Z M15.5334613,56.8927532 L14.7326803,57.2931442 L14.5744773,58.1759562 L15.1877583,58.8302532 L15.5334613,58.8927532 L16.3342433,58.4904092 L16.4924463,57.6095502 L15.8811183,56.9533002 L15.5334613,56.8927532 Z" id="Shape"></path>
            </g>
        </g>
    </g>
</svg>