<?xml version="1.0" encoding="UTF-8"?>
<svg width="61px" height="61px" viewBox="0 0 61 61" version="1.1" xmlns="http://www.w3.org/2000/svg" xmlns:xlink="http://www.w3.org/1999/xlink">
    <title>icons8-sent</title>
    <g id="Page-1" stroke="none" stroke-width="1" fill="none" fill-rule="evenodd">
        <g id="Artboard" transform="translate(-402.000000, -447.000000)" fill="#0E6EB4" fill-rule="nonzero">
            <g id="icons8-sent" transform="translate(402.713718, 447.921257)">
                <path d="M57.149563,0.0123371652 C56.954251,0.0357741652 56.758938,0.0865561652 56.567532,0.168587165 L1.20425097,24.1568682 C0.446437973,24.4849932 -0.0262180269,25.2310872 0.00112597313,26.0553062 C0.0284699731,26.8795242 0.544094973,27.5943682 1.32143797,27.8756182 L23.505032,35.8599932 L31.489407,58.0435872 C31.766751,58.8170242 32.481595,59.3365562 33.305813,59.3638992 C33.329251,59.3638992 33.352688,59.3638992 33.376126,59.3638992 C34.173001,59.3638992 34.887845,58.8951492 35.208157,58.1568682 L59.196438,2.79749317 C59.524563,2.03968117 59.360501,1.17249317 58.774563,0.586556165 C58.337063,0.149056165 57.739407,-0.0540688348 57.149563,0.0123371652 Z M57.364407,2.00061817 L53.794095,10.2428062 C53.512845,10.2232742 53.227688,10.3092122 53.016751,10.5201492 C52.62222,10.9146812 52.62222,11.5435872 53.016751,11.9381182 L53.048001,11.9693682 L51.805813,14.8287432 L50.962063,13.9849932 C50.571438,13.5943682 49.938626,13.5943682 49.551907,13.9849932 C49.157376,14.3795242 49.157376,15.0123372 49.551907,15.4029622 L50.950345,16.8013992 L33.376126,57.3756182 C33.376126,57.3756182 33.376126,57.3717122 33.37222,57.3638992 L27.665188,41.5123372 C28.008938,41.1178062 28.005032,40.5240562 27.630032,40.1490562 L26.919095,39.4381182 L25.442532,35.3365562 L46.493313,14.2857742 C46.883938,13.8951492 46.883938,13.2623372 46.493313,12.8717122 C46.102688,12.4810872 45.469876,12.4810872 45.079251,12.8717122 L24.02847,33.9224932 L1.99721997,25.9928062 L57.364407,2.00061817 Z M50.7862822,7.57874317 C50.532376,7.57874317 50.274563,7.67639917 50.079251,7.87171217 L47.579251,10.3717122 C47.188626,10.7623372 47.188626,11.3951492 47.579251,11.7857742 C47.774563,11.9810872 48.02847,12.0787432 48.2862822,12.0787432 C48.544095,12.0787432 48.798001,11.9810872 48.993313,11.7857742 L51.493313,9.28577417 C51.883938,8.89514917 51.883938,8.26233717 51.493313,7.87171217 C51.298001,7.67639917 51.040188,7.57874317 50.7862822,7.57874317 Z M46.723782,17.2310872 C46.46597,17.2310872 46.212063,17.3248372 46.016751,17.5201492 C45.62222,17.9146812 45.62222,18.5435872 46.016751,18.9381182 L47.426907,20.3482742 C47.62222,20.5435872 47.880032,20.6412432 48.133938,20.6412432 C48.391751,20.6412432 48.649563,20.5435872 48.844876,20.3482742 C49.235501,19.9576492 49.235501,19.3287432 48.844876,18.9381182 L47.426907,17.5201492 C47.231595,17.3248372 46.977688,17.2310872 46.723782,17.2310872 Z M43.1847192,20.7662432 C42.930813,20.7662432 42.673001,20.8599932 42.477688,21.0592122 C42.087063,21.4498372 42.087063,22.0787432 42.477688,22.4693682 L43.891751,23.8873372 C44.087063,24.0787432 44.34097,24.1763992 44.598782,24.1763992 C44.856595,24.1763992 45.110501,24.0787432 45.305813,23.8873372 C45.696438,23.4928062 45.696438,22.8638992 45.305813,22.4693682 L43.891751,21.0592122 C43.696438,20.8599932 43.438626,20.7662432 43.1847192,20.7662432 Z M39.6495632,24.3013992 C39.395657,24.3013992 39.137845,24.3990562 38.942532,24.5943682 C38.551907,24.9849932 38.551907,25.6178062 38.942532,26.0084312 L40.356595,27.4224932 C40.551907,27.6178062 40.805813,27.7154622 41.063626,27.7154622 C41.321438,27.7154622 41.575345,27.6178062 41.770657,27.4224932 C42.161282,27.0318682 42.161282,26.3990562 41.770657,26.0084312 L40.356595,24.5943682 C40.161282,24.3990562 39.90347,24.3013992 39.6495632,24.3013992 Z M36.1144072,27.8326492 C35.860501,27.8326492 35.602688,27.9342122 35.407376,28.1295242 C35.016751,28.5201492 35.016751,29.1529622 35.407376,29.5435872 L36.821438,30.9576492 C37.016751,31.1529622 37.270657,31.2506182 37.52847,31.2506182 C37.786282,31.2506182 38.040188,31.1529622 38.235501,30.9576492 C38.626126,30.5670242 38.626126,29.9342122 38.235501,29.5435872 L36.821438,28.1295242 C36.626126,27.9342122 36.368313,27.8326492 36.1144072,27.8326492 Z M32.5792512,31.3717122 C32.321438,31.3717122 32.067532,31.4693682 31.87222,31.6646812 C31.481595,32.0553062 31.481595,32.6881182 31.87222,33.0787432 L33.286282,34.4928062 C33.481595,34.6881182 33.735501,34.7857742 33.993313,34.7857742 C34.251126,34.7857742 34.505032,34.6881182 34.700345,34.4928062 C35.09097,34.1021812 35.09097,33.4693682 34.700345,33.0787432 L33.286282,31.6646812 C33.09097,31.4693682 32.837063,31.3717122 32.5792512,31.3717122 Z M29.0440942,34.9068682 C28.790188,34.9068682 28.532376,35.0045242 28.337063,35.1998372 C27.946438,35.5904622 27.946438,36.2232742 28.337063,36.6138992 L29.751126,38.0279622 C29.946438,38.2232742 30.200345,38.3209312 30.458157,38.3209312 C30.71597,38.3209312 30.969876,38.2232742 31.165188,38.0279622 C31.555813,37.6373372 31.555813,37.0045242 31.165188,36.6138992 L29.751126,35.1998372 C29.555813,35.0045242 29.298001,34.9068682 29.0440942,34.9068682 Z" id="Shape"></path>
            </g>
        </g>
    </g>
</svg>