<?xml version="1.0" encoding="UTF-8"?>
<svg width="62px" height="57px" viewBox="0 0 62 57" version="1.1" xmlns="http://www.w3.org/2000/svg" xmlns:xlink="http://www.w3.org/1999/xlink">
    <title>icons8-waiter</title>
    <g id="Page-1" stroke="none" stroke-width="1" fill="none" fill-rule="evenodd">
        <g id="icons8-waiter" transform="translate(0.000000, -0.000000)" fill="#0E6EB4" fill-rule="nonzero">
            <path d="M20.167969,0 C18.311969,0 16.481125,0.4397969 14.578125,1.3417969 C9.084125,1.5287969 8.529656,8.2752504 8.472656,12.9062504 C7.8446563,12.7412504 7.228125,12.7355474 6.703125,13.0605474 C5.790125,13.6245474 5.7890625,14.7348434 5.7890625,15.7148434 C5.7890625,17.2928434 6.9026719,20.0500464 8.763672,20.6230474 C9.347523,21.9448944 10.481606,24.1394934 12.201172,26.0859374 L5.734375,30.3730474 C2.196375,32.3030464 0,36.0022964 0,40.0292974 L0,55.0937504 C0,55.6467504 0.447,56.0937504 1,56.0937504 L34,56.0937504 C34.553,56.0937504 35,55.6467504 35,55.0937504 L35,43.4355474 L44.056641,46.1464844 C45.522641,46.4324844 47.0305,46.0535154 48.1875,45.1035154 C49.3435,44.1545154 50.010625,42.7499064 50.015625,41.2539064 L50.041016,32.6328124 C52.580063,31.7515974 56.064989,29.6502144 56.832031,27.0937504 L59,27.0937504 C60.654,27.0937504 62,25.7477504 62,24.0937504 C62,22.4397504 60.654,21.0937504 59,21.0937504 L58.630859,21.0937504 C57.501482,16.3350614 53.756071,12.5904114 49,11.4589844 L49,9.0937504 C49,7.4397504 47.654,6.0937504 46,6.0937504 C44.346,6.0937504 43,7.4397504 43,9.0937504 L43,11.4589844 C38.218988,12.5966314 34.455544,16.3747334 33.347656,21.1699214 C32.007277,21.4694364 31,22.6644854 31,24.0937504 C31,25.7477504 32.346,27.0937504 34,27.0937504 L37.240234,27.0937504 C37.827771,29.5445564 39.286703,30.9828664 40,31.5703124 L40,32.4765624 L33.447266,29.1992184 C33.416266,29.1832184 33.384563,29.1702034 33.351562,29.1582034 C30.482017,28.0765044 28.475839,27.3326034 26.890625,26.7500004 C28.423137,24.8905244 29.44256,22.5657074 30.248047,20.6171874 C32.102047,20.0361874 33.208984,17.2888434 33.208984,15.7148434 C33.208984,14.7348434 33.209875,13.6245474 32.296875,13.0605474 C31.771875,12.7375464 31.157203,12.7442964 30.533203,12.9042974 L30.533203,10.7695314 C31.121203,10.9235314 31.659453,10.8643124 32.064453,10.6953124 C32.771453,10.4033124 33.208984,9.7643434 33.208984,9.0273434 C33.208984,4.2503438 25.915969,0 20.167969,0 Z M20.167969,2 C25.137969,2 31.005125,5.6793281 31.203125,8.8613284 C31.026125,8.8573284 30.668234,8.7463594 30.240234,8.3183594 C29.954234,8.0323594 29.525391,7.9465624 29.150391,8.1015624 C28.776391,8.2555624 28.533203,8.6213904 28.533203,9.0253904 L28.533203,14.3769534 C28.533203,14.7239534 28.712812,15.0455154 29.007812,15.2285154 C29.301812,15.4115154 29.669469,15.4254844 29.980469,15.2714844 C30.626469,14.9484844 30.991781,14.8445004 31.175781,14.8125004 C31.209781,15.0445004 31.2089856,15.4348434 31.2089856,15.7148434 C31.2089856,16.8978434 30.191203,18.7285154 29.533203,18.7285154 C29.128203,18.7285154 28.761422,18.9746094 28.607422,19.3496094 C26.714422,23.9576094 24.645969,28.0937504 20.167969,28.0937504 C14.425969,28.0937504 11.233625,21.3947974 10.390625,19.3417974 C10.235625,18.9607974 9.86575,18.7246094 9.46875,18.7246094 C9.45175,18.7246094 9.436922,18.7255624 9.419922,18.7265624 C8.761922,18.6435624 7.7890625,16.8698434 7.7890625,15.7148434 C7.7890625,15.4338434 7.7890625,15.0445004 7.8222656,14.8125004 C8.005266,14.8445004 8.371578,14.9484844 9.017578,15.2714844 C9.329578,15.4254844 9.696234,15.4115154 9.990234,15.2285154 C10.285234,15.0455154 10.464844,14.7239534 10.464844,14.3769534 C10.464844,8.7909534 10.801406,3.3378906 14.816406,3.3378906 C14.969406,3.3378906 15.120813,3.302375 15.257812,3.234375 C16.952812,2.403375 18.558969,2 20.167969,2 Z M14.929688,5.3574219 C14.442563,5.3274219 13.947844,5.6332969 13.839844,6.1230474 C13.829844,6.1710464 13.822359,6.2185784 13.818359,6.2675784 C13.301359,7.2195784 12.646094,8.0885154 11.871094,8.8535154 C11.478094,9.2425154 11.475281,9.8735784 11.863281,10.2675784 C12.059281,10.4645784 12.316219,10.5644534 12.574219,10.5644534 C12.828219,10.5644534 13.082344,10.4703434 13.277344,10.2773434 C14.070344,9.4933434 14.756266,8.6180154 15.322266,7.6660154 C18.531266,9.1060154 21.195531,10.0253904 25.519531,10.0253904 C26.072531,10.0253904 26.519531,9.5783904 26.519531,9.0253904 C26.519531,8.4723904 26.072531,8.0253904 25.519531,8.0253904 C21.253531,8.0253904 18.818438,7.0749064 15.398438,5.5039063 C15.252438,5.4136563 15.092063,5.3674219 14.929688,5.3574219 Z M46,8.0937504 C46.552,8.0937504 47,8.5417504 47,9.0937504 L47,11.0937504 L45,11.0937504 L45,9.0937504 C45,8.5417504 45.448,8.0937504 46,8.0937504 Z M46,13.0957034 C51.022556,13.0957034 55.251552,16.4856234 56.5625,21.0937504 L35.421875,21.0937504 C36.732284,16.4835454 40.975731,13.0957034 46,13.0957034 Z M34,23.0937504 L59,23.0937504 C59.552,23.0937504 60,23.5417504 60,24.0937504 C60,24.6457504 59.552,25.0937504 59,25.0937504 L39,25.0937504 L37,25.0937504 L34,25.0937504 C33.448,25.0937504 33,24.6457504 33,24.0937504 C33,23.5417504 33.448,23.0937504 34,23.0937504 Z M39.328125,27.0937504 L54.673828,27.0937504 C53.497211,29.0699454 49.379085,31.0937504 48,31.0937504 L48,31.1250004 L41.410156,30.1445314 C41.113964,29.9244034 39.929602,28.9452794 39.328125,27.0937504 Z M13.464844,27.6464844 L19.050781,44.3535154 C19.187781,44.7615154 19.57,45.0371094 20,45.0371094 L20.001953,45.0371094 C20.432953,45.0361094 20.814219,44.7596094 20.949219,44.3496094 L26.142578,28.6152344 C28.261754,29.3947194 30.689664,30.2948504 32.597656,31.0136714 L39.998047,34.7128904 L39.998047,36.0957034 C39.998047,36.6487034 40.445047,37.0957034 40.998047,37.0957034 C41.551047,37.0957034 41.998047,36.6487034 41.998047,36.0957034 L41.998047,32.2558594 L48.039062,33.1523434 L48.013672,41.2500004 C48.010672,42.1470004 47.612969,42.9885934 46.917969,43.5585934 C46.223969,44.1285934 45.318203,44.3549844 44.533203,44.2089844 L34.285156,41.1367184 C33.980156,41.0457184 33.655344,41.1039684 33.402344,41.2929684 C33.149344,41.4799684 33,41.7767504 33,42.0937504 L33,54.0937504 L2,54.0937504 L2,40.0292974 C2,36.7342964 3.7976719,33.7079374 6.7636719,32.0859374 L13.464844,27.6464844 Z M16.068359,29.1269534 C17.283807,29.7204964 18.643976,30.0937504 20.167969,30.0937504 C21.568723,30.0937504 22.773175,29.7783674 23.826172,29.2558594 L19.994141,40.8652344 L16.068359,29.1269534 Z M5,48.0937504 C4.447,48.0937504 4,48.5407504 4,49.0937504 L4,51.0937504 C4,51.6467504 4.447,52.0937504 5,52.0937504 C5.553,52.0937504 6,51.6457504 6,51.0937504 L6,49.0937504 C6,48.5407504 5.553,48.0937504 5,48.0937504 Z M10,48.0937504 C9.447,48.0937504 9,48.5407504 9,49.0937504 L9,51.0937504 C9,51.6467504 9.447,52.0937504 10,52.0937504 C10.553,52.0937504 11,51.6457504 11,51.0937504 L11,49.0937504 C11,48.5407504 10.553,48.0937504 10,48.0937504 Z M15,48.0937504 C14.447,48.0937504 14,48.5407504 14,49.0937504 L14,51.0937504 C14,51.6467504 14.447,52.0937504 15,52.0937504 C15.553,52.0937504 16,51.6457504 16,51.0937504 L16,49.0937504 C16,48.5407504 15.553,48.0937504 15,48.0937504 Z M20,48.0937504 C19.447,48.0937504 19,48.5407504 19,49.0937504 L19,51.0937504 C19,51.6467504 19.447,52.0937504 20,52.0937504 C20.553,52.0937504 21,51.6457504 21,51.0937504 L21,49.0937504 C21,48.5407504 20.553,48.0937504 20,48.0937504 Z M25,48.0937504 C24.447,48.0937504 24,48.5407504 24,49.0937504 L24,51.0937504 C24,51.6467504 24.447,52.0937504 25,52.0937504 C25.553,52.0937504 26,51.6457504 26,51.0937504 L26,49.0937504 C26,48.5407504 25.553,48.0937504 25,48.0937504 Z M30,48.0937504 C29.447,48.0937504 29,48.5407504 29,49.0937504 L29,51.0937504 C29,51.6467504 29.447,52.0937504 30,52.0937504 C30.553,52.0937504 31,51.6457504 31,51.0937504 L31,49.0937504 C31,48.5407504 30.553,48.0937504 30,48.0937504 Z" id="Shape"></path>
        </g>
    </g>
</svg>