<?xml version="1.0" encoding="UTF-8"?>
<svg width="64px" height="53px" viewBox="0 0 64 53" version="1.1" xmlns="http://www.w3.org/2000/svg" xmlns:xlink="http://www.w3.org/1999/xlink">
    <title>icons8-show_property</title>
    <g id="Page-1" stroke="none" stroke-width="1" fill="none" fill-rule="evenodd">
        <g id="icons8-show_property" transform="translate(0.000000, 0.037109)" fill="#0E6EB4" fill-rule="nonzero">
            <path d="M3,0 C1.351563,0 0,1.351563 0,3 L0,45 C0,46.648438 1.351563,48 3,48 L38.320313,48 C41.011719,50.140625 44.390625,52 48,52 C54.671875,52 60.570313,45.640625 62.800781,42.902344 C63.699219,41.800781 63.699219,40.199219 62.800781,39.097656 C61.539063,37.550781 59.089844,34.828125 56,32.769531 L56,3 C56,1.351563 54.648438,0 53,0 L3,0 Z M3,2 L53,2 C53.550781,2 54,2.449219 54,3 L54,6 L2,6 L2,3 C2,2.449219 2.449219,2 3,2 Z M2,8 L54,8 L54,31.589844 C52.140625,30.628906 50.109375,30 48,30 C41.328125,30 35.429688,36.359375 33.199219,39.097656 C32.75,39.648438 32.519531,40.320313 32.519531,41 C32.519531,41.679688 32.75,42.351563 33.199219,42.902344 C33.859375,43.710938 34.832031,44.820313 36.050781,46 L3,46 C2.449219,46 2,45.550781 2,45 L2,8 Z M15.0000002,12 C14.746094,12 14.488281,12.097656 14.292969,12.292969 L11.0000002,15.585938 L9.707031,14.292969 C9.316406,13.902344 8.683594,13.902344 8.292969,14.292969 C7.902344,14.683594 7.902344,15.316406 8.292969,15.707031 L10.292969,17.707031 C10.488281,17.902344 10.742188,18 11.0000002,18 C11.257813,18 11.511719,17.902344 11.707031,17.707031 L15.707031,13.707031 C16.097656,13.316406 16.097656,12.683594 15.707031,12.292969 C15.511719,12.097656 15.253906,12 15.0000002,12 Z M19,14 C18.445313,14 18,14.445313 18,15 C18,15.554688 18.445313,16 19,16 L23,16 C23.554688,16 24,15.554688 24,15 C24,14.445313 23.554688,14 23,14 L19,14 Z M27,14 C26.445313,14 26,14.445313 26,15 C26,15.554688 26.445313,16 27,16 L44,16 C44.554688,16 45,15.554688 45,15 C45,14.445313 44.554688,14 44,14 L27,14 Z M15.0000002,20 C14.746094,20 14.488281,20.097656 14.292969,20.292969 L11.0000002,23.585938 L9.707031,22.292969 C9.316406,21.902344 8.683594,21.902344 8.292969,22.292969 C7.902344,22.683594 7.902344,23.316406 8.292969,23.707031 L10.292969,25.707031 C10.488281,25.902344 10.742188,26 11.0000002,26 C11.257813,26 11.511719,25.902344 11.707031,25.707031 L15.707031,21.707031 C16.097656,21.316406 16.097656,20.683594 15.707031,20.292969 C15.511719,20.097656 15.253906,20 15.0000002,20 Z M19,22 C18.445313,22 18,22.445313 18,23 C18,23.554688 18.445313,24 19,24 L44,24 C44.554688,24 45,23.554688 45,23 C45,22.445313 44.554688,22 44,22 L19,22 Z M15.0000002,28 C14.746094,28 14.488281,28.097656 14.292969,28.292969 L11.0000002,31.585938 L9.707031,30.292969 C9.316406,29.902344 8.683594,29.902344 8.292969,30.292969 C7.902344,30.683594 7.902344,31.316406 8.292969,31.707031 L10.292969,33.707031 C10.488281,33.902344 10.742188,34 11.0000002,34 C11.257813,34 11.511719,33.902344 11.707031,33.707031 L15.707031,29.707031 C16.097656,29.316406 16.097656,28.683594 15.707031,28.292969 C15.511719,28.097656 15.253906,28 15.0000002,28 Z M19,30 C18.445313,30 18,30.445313 18,31 C18,31.554688 18.445313,32 19,32 L34,32 C34.554688,32 35,31.554688 35,31 C35,30.445313 34.554688,30 34,30 L19,30 Z M48,32 C53.808594,32 59.199219,37.847656 61.25,40.359375 C61.550781,40.738281 61.550781,41.261719 61.25,41.640625 C59.199219,44.152344 53.808594,50 48,50 C45.621094,50 43.308594,49.019531 41.261719,47.679688 C40.46875,47.160156 39.71875,46.589844 39.019531,46 C37.140625,44.421875 35.640625,42.71875 34.75,41.640625 C34.449219,41.261719 34.449219,40.738281 34.75,40.359375 C36.800781,37.847656 42.191406,32 48,32 Z M48,35 C44.691406,35 42,37.691406 42,41 C42,44.308594 44.691406,47 48,47 C51.308594,47 54,44.308594 54,41 C54,37.691406 51.308594,35 48,35 Z M48,37 C50.207031,37 52,38.792969 52,41 C52,43.207031 50.207031,45 48,45 C45.792969,45 44,43.207031 44,41 C44,38.792969 45.792969,37 48,37 Z M5,40 C4.445313,40 4,40.445313 4,41 L4,43 C4,43.554688 4.445313,44 5,44 C5.554688,44 6,43.554688 6,43 L6,41 C6,40.445313 5.554688,40 5,40 Z M10,40 C9.445313,40 9,40.445313 9,41 L9,43 C9,43.554688 9.445313,44 10,44 C10.554688,44 11,43.554688 11,43 L11,41 C11,40.445313 10.554688,40 10,40 Z M15,40 C14.445313,40 14,40.445313 14,41 L14,43 C14,43.554688 14.445313,44 15,44 C15.554688,44 16,43.554688 16,43 L16,41 C16,40.445313 15.554688,40 15,40 Z M20,40 C19.445313,40 19,40.445313 19,41 L19,43 C19,43.554688 19.445313,44 20,44 C20.554688,44 21,43.554688 21,43 L21,41 C21,40.445313 20.554688,40 20,40 Z M25,40 C24.445313,40 24,40.445313 24,41 L24,43 C24,43.554688 24.445313,44 25,44 C25.554688,44 26,43.554688 26,43 L26,41 C26,40.445313 25.554688,40 25,40 Z M30,40 C29.445313,40 29,40.445313 29,41 L29,43 C29,43.554688 29.445313,44 30,44 C30.554688,44 31,43.554688 31,43 L31,41 C31,40.445313 30.554688,40 30,40 Z" id="Shape"></path>
        </g>
    </g>
</svg>