<?xml version="1.0" encoding="UTF-8"?>
<svg width="56px" height="64px" viewBox="0 0 56 64" version="1.1" xmlns="http://www.w3.org/2000/svg" xmlns:xlink="http://www.w3.org/1999/xlink">
    <title>icons8-omnichannel</title>
    <g id="Page-1" stroke="none" stroke-width="1" fill="none" fill-rule="evenodd">
        <g id="Artboard" transform="translate(-568.000000, -443.000000)" fill="#0E6EB4" fill-rule="nonzero">
            <g id="icons8-omnichannel" transform="translate(568.000000, 443.000000)">
                <path d="M28,0 C25.243,0 23,2.243 23,5 C23,7.4143633 24.720904,9.433596 27,9.8984375 L27,12 C27,12.553 27.447,13 28,13 C28.553,13 29,12.553 29,12 L29,9.8984375 C31.279096,9.433596 33,7.4143633 33,5 C33,2.243 30.757,0 28,0 Z M28,2 C29.654,2 31,3.346 31,5 C31,6.654 29.654,8 28,8 C26.346,8 25,6.654 25,5 C25,3.346 26.346,2 28,2 Z M5,3 C2.243,3 0,5.243 0,8 C0,10.757 2.243,13 5,13 C6.017356,13 6.961454,12.689985 7.751953,12.166016 L15.292969,19.707031 C15.487969,19.902031 15.744,20 16,20 C16.256,20 16.512031,19.902031 16.707031,19.707031 C17.098031,19.316031 17.098031,18.683969 16.707031,18.292969 L9.166016,10.751953 C9.689985,9.9614538 10,9.0173558 10,8 C10,5.243 7.757,3 5,3 Z M51,3 C48.243,3 46,5.243 46,8 C46,9.0173558 46.310015,9.9614538 46.833984,10.751953 L39.292969,18.292969 C38.901969,18.683969 38.901969,19.316031 39.292969,19.707031 C39.487969,19.902031 39.744,20 40,20 C40.256,20 40.512031,19.902031 40.707031,19.707031 L48.248047,12.166016 C49.038546,12.689985 49.982644,13 51,13 C53.757,13 56,10.757 56,8 C56,5.243 53.757,3 51,3 Z M5,5 C6.654,5 8,6.346 8,8 C8,9.654 6.654,11 5,11 C3.346,11 2,9.654 2,8 C2,6.346 3.346,5 5,5 Z M51,5 C52.654,5 54,6.346 54,8 C54,9.654 52.654,11 51,11 C49.346,11 48,9.654 48,8 C48,6.346 49.346,5 51,5 Z M28,15 C23.037,15 19,19.486 19,25 C19,27.651473 19.651952,30.376467 20.802734,32.646484 L14.158203,36.859375 C11.630203,38.145375 10,40.776125 10,43.578125 L10,44.691406 C10,45.964406 11.052703,47 12.345703,47 L43.654297,47 C44.947297,47 46,45.964406 46,44.691406 L46,43.572266 C46,40.776266 44.374516,38.147422 41.853516,36.857422 L35.208984,32.623047 C36.352388,30.357655 37,27.642413 37,25 C37,19.486 32.963,15 28,15 Z M28,17 C32.323,17 35,21.152 35,25 C35,30.203 32.125,36 28,36 C23.875,36 21,30.203 21,25 C21,21.152 23.677,17 28,17 Z M34.179688,34.337891 L40.820312,38.570312 L40.908203,38.621094 C42.786203,39.564094 44,41.509266 44,43.572266 L44,44.691406 C44,44.850406 43.831297,45 43.654297,45 L12.345703,45 C12.167703,45 12,44.850406 12,44.691406 L12,43.578125 C12,41.511125 13.216609,39.567 15.099609,38.625 L21.835938,34.359375 C23.388528,36.540648 25.499973,38 28,38 C30.508274,38 32.625725,36.531197 34.179688,34.337891 Z M10,49 C9.74425,49 9.488469,49.097469 9.292969,49.292969 L7.292969,51.292969 C7.229891,51.356046 7.193116,51.432261 7.150391,51.505859 C6.49641,51.191434 5.7728479,51 5,51 C2.243,51 0,53.243 0,56 C0,58.757 2.243,61 5,61 C7.757,61 10,58.757 10,56 C10,54.727068 9.50683,53.57697 8.720703,52.693359 L10.707031,50.707031 C11.098031,50.316031 11.098031,49.683969 10.707031,49.292969 C10.511531,49.097469 10.25575,49 10,49 Z M46,49 C45.74425,49 45.488469,49.097469 45.292969,49.292969 C44.901969,49.683969 44.901969,50.316031 45.292969,50.707031 L47.279297,52.693359 C46.49317,53.57697 46,54.727068 46,56 C46,58.757 48.243,61 51,61 C53.757,61 56,58.757 56,56 C56,53.243 53.757,51 51,51 C50.227152,51 49.50359,51.191434 48.849609,51.505859 C48.806884,51.432261 48.770109,51.356046 48.707031,51.292969 L46.707031,49.292969 C46.511531,49.097469 46.25575,49 46,49 Z M28,50 C27.447,50 27,50.447 27,51 L27,54 C27,54.034729 27.01609,54.063847 27.019531,54.097656 C24.730824,54.554977 23,56.578805 23,59 C23,61.757 25.243,64 28,64 C30.757,64 33,61.757 33,59 C33,56.578805 31.269176,54.554977 28.980469,54.097656 C28.98391,54.063847 29,54.034729 29,54 L29,51 C29,50.447 28.553,50 28,50 Z M5,53 C6.654,53 8,54.346 8,56 C8,57.654 6.654,59 5,59 C3.346,59 2,57.654 2,56 C2,54.346 3.346,53 5,53 Z M51,53 C52.654,53 54,54.346 54,56 C54,57.654 52.654,59 51,59 C49.346,59 48,57.654 48,56 C48,54.346 49.346,53 51,53 Z M28,56 C29.654,56 31,57.346 31,59 C31,60.654 29.654,62 28,62 C26.346,62 25,60.654 25,59 C25,57.346 26.346,56 28,56 Z" id="Shape"></path>
            </g>
        </g>
    </g>
</svg>