<?xml version="1.0" encoding="UTF-8"?>
<svg width="14px" height="17px" viewBox="0 0 14 17" version="1.1" xmlns="http://www.w3.org/2000/svg" xmlns:xlink="http://www.w3.org/1999/xlink">
    <!-- Generator: Sketch 54.1 (76490) - https://sketchapp.com -->
    <title>icons8-euro_98</title>
    <desc>Created with Sketch.</desc>
    <g id="TPP-Dashboard" stroke="none" stroke-width="1" fill="none" fill-rule="evenodd">
        <g id="List-of-users" transform="translate(-62.000000, -184.000000)" fill="currentColor" fill-rule="nonzero">
            <g id="icons8-euro_98" transform="translate(62.000000, 184.000000)">
                <path d="M8.46614173,0 C6.45984252,0 4.66299283,1.01141892 3.41181138,2.55919438 C2.52992161,3.65234408 1.91811024,5.02133446 1.62047315,6.53846154 L0,6.53846154 L0,7.84615385 L1.46614244,7.84615385 C1.44960665,8.06580562 1.41102362,8.27524038 1.41102362,8.5 C1.41102362,8.72475962 1.44960665,8.93419438 1.46614244,9.15384615 L0,9.15384615 L0,10.4615385 L1.62047315,10.4615385 C1.91811024,11.9786655 2.52992161,13.3476559 3.41181138,14.4408056 C4.66299283,15.9885824 6.45984252,17 8.46614173,17 C10.637796,17 12.7157484,15.9272843 14,14.0832328 L12.8094488,13.3783056 C11.7677169,14.875 10.1417323,15.6923077 8.46614173,15.6923077 C6.96692913,15.6923077 5.58897708,14.9465151 4.54173228,13.6541463 C3.8472448,12.8010824 3.34566964,11.6926078 3.06456693,10.4615385 L9.87716535,10.4615385 L9.87716535,9.15384615 L2.87716606,9.15384615 C2.86063027,8.93419438 2.82204724,8.72475962 2.82204724,8.5 C2.82204724,8.27524038 2.86063027,8.06580562 2.87716606,7.84615385 L9.87716535,7.84615385 L9.87716535,6.53846154 L3.06456693,6.53846154 C3.34566964,5.30739215 3.8472448,4.19891892 4.54173228,3.34074585 C5.58897708,2.05348623 6.96692913,1.30769231 8.46614173,1.30769231 C10.1417323,1.30769231 11.7677169,2.125 12.8094488,3.62680354 L14,2.91165931 C12.7157484,1.072717 10.637796,0 8.46614173,0 Z" id="Path"></path>
            </g>
        </g>
    </g>
</svg>
