<?xml version="1.0" encoding="UTF-8"?>
<svg width="12px" height="6px" viewBox="0 0 12 6" version="1.1" xmlns="http://www.w3.org/2000/svg" xmlns:xlink="http://www.w3.org/1999/xlink">
    <!-- Generator: Sketch 52.3 (67297) - http://www.bohemiancoding.com/sketch -->
    <title>Path Copy 2</title>
    <desc>Created with Sketch.</desc>
    <g id="TPP-Dashboard" stroke="none" stroke-width="1" fill="none" fill-rule="evenodd">
        <g id="List-of-users" transform="translate(-1138.000000, -500.000000)" fill="#B5B5B5">
            <path d="M1143.51733,505.517332 C1143.3332,505.517692 1143.15476,505.453565 1143.01298,505.336082 L1138.2847,501.395848 C1137.94958,501.117303 1137.90371,500.619826 1138.18226,500.284702 C1138.4608,499.949577 1138.95828,499.903711 1139.2934,500.182256 L1143.51733,503.712705 L1147.74126,500.308343 C1147.90407,500.176132 1148.11286,500.114272 1148.32141,500.136458 C1148.52996,500.158644 1148.72106,500.263046 1148.85241,500.42655 C1148.9983,500.590353 1149.06932,500.807553 1149.04838,501.025906 C1149.02745,501.244259 1148.91645,501.444005 1148.74208,501.577098 L1144.0138,505.383364 C1143.86795,505.482277 1143.69315,505.529445 1143.51733,505.517332 Z" id="Path-Copy-2" transform="translate(1143.525993, 502.759598) rotate(-180.000000) translate(-1143.525993, -502.759598) "></path>
        </g>
    </g>
</svg>