<?xml version="1.0" encoding="UTF-8"?>
<svg width="14px" height="16px" viewBox="0 0 12 14" version="1.1" xmlns="http://www.w3.org/2000/svg" xmlns:xlink="http://www.w3.org/1999/xlink">
    <!-- Generator: Sketch 52.3 (67297) - http://www.bohemiancoding.com/sketch -->
    <title>icons8-exit</title>
    <desc>Created with Sketch.</desc>
    <g id="TPP-Dashboard" stroke="none" stroke-width="1" fill="currentColor" fill-rule="evenodd">
        <g id="Upload-File-YAML" transform="translate(-1260.000000, -32.000000)" fill="#202223" fill-rule="nonzero">
            <g id="icons8-exit" transform="translate(1260.000000, 32.000000)">
                <path d="M0.715083799,0 C0.323091307,0 0,0.37953132 0,0.84 L0,13.16 C0,13.6204687 0.323091307,14 0.715083799,14 L8.81936685,14 C9.21135934,14 9.53445065,13.6204687 9.53445065,13.16 L9.53445065,10.92 L9.05772812,11.48 L9.05772812,13.16 C9.05772812,13.3175 8.95344507,13.44 8.81936685,13.44 L0.715083799,13.44 C0.581005587,13.44 0.476722533,13.3175 0.476722533,13.16 L0.476722533,0.84 C0.476722533,0.68140632 0.580074547,0.56 0.715083799,0.56 L8.81936685,0.56 C8.95344507,0.56 9.05772812,0.6825 9.05772812,0.84 L9.05772812,2.52 L9.53445065,3.08 L9.53445065,0.84 C9.53445065,0.37953132 9.21135934,0 8.81936685,0 L0.715083799,0 Z M9.02048417,3.66625 C8.9310987,3.68484368 8.85940416,3.76140632 8.83426443,3.863125 C8.80912471,3.96593764 8.83519547,4.07531264 8.90130354,4.1475 L11.0912477,6.72 L4.05214153,6.72 C4.04469274,6.72 4.03724395,6.72 4.02979516,6.72 C3.8985103,6.72765632 3.79608933,6.85890632 3.80260708,7.013125 C3.80912483,7.16734368 3.92085667,7.28765632 4.05214153,7.28 L11.0912477,7.28 L8.90130354,9.8525 C8.83054004,9.92031264 8.79795152,10.0285937 8.81843581,10.1335937 C8.83891987,10.2375 8.90875233,10.3195313 8.99720676,10.3435937 C9.08659224,10.3676563 9.17877107,10.329375 9.23649907,10.24625 L11.8361266,7.20125 L12,7 L11.8361266,6.79875 L9.23649907,3.75375 C9.1871509,3.69140632 9.11545636,3.65968764 9.04283054,3.66625 C9.03538175,3.66625 9.02793296,3.66625 9.02048417,3.66625 Z" id="Shape"></path>
            </g>
        </g>
    </g>
</svg>
