<?xml version="1.0" encoding="UTF-8"?>
<svg width="24px" height="24px" viewBox="0 0 24 20" version="1.1" xmlns="http://www.w3.org/2000/svg" xmlns:xlink="http://www.w3.org/1999/xlink">
    <!-- Generator: Sketch 54.1 (76490) - https://sketchapp.com -->
    <title>icons8-upload_to_cloud</title>
    <desc>Created with Sketch.</desc>
    <g id="TPP-Dashboard" stroke="none" stroke-width="1" fill="none" fill-rule="evenodd">
        <g id="Home-Screen-/-User-Accounts-Copy" transform="translate(-190.000000, -237.000000)" fill="currentColor" fill-rule="nonzero">
            <g id="icons8-upload_to_cloud" transform="translate(190.000000, 237.000000)">
                <path d="M13.92,0.255 C11.4168749,0.255 9.29812512,1.75312512 8.28,3.87 C7.73812512,3.49687488 7.11,3.225 6.405,3.225 C4.61625024,3.225 3.18937488,4.64062512 3.09,6.405 C1.30125024,7.05 0,8.71875024 0,10.725 C0,13.2825 2.0775,15.36 4.635,15.36 L8.64,15.36 C8.8125,15.3618749 8.97375024,15.2718749 9.06187488,15.1218749 C9.14812512,14.9718749 9.14812512,14.7881251 9.06187488,14.6381251 C8.97375024,14.4881251 8.8125,14.3981251 8.64,14.4 L4.635,14.4 C2.595,14.4 0.96,12.7631251 0.96,10.725 C0.96,9.02812512 2.10375024,7.59937488 3.66,7.17 C3.87187488,7.10812512 4.01437488,6.90937488 4.005,6.69 C4.00312512,6.6225 4.005,6.58875024 4.005,6.585 C4.005,5.25187488 5.07187488,4.185 6.405,4.185 C7.0725,4.185 7.68,4.45312512 8.115,4.89 C8.22937488,5.00062512 8.3925,5.04937488 8.54812512,5.01562512 C8.70562512,4.98187488 8.835,4.87312512 8.895,4.725 C9.65062512,2.685 11.6118749,1.215 13.92,1.215 C16.8825,1.215 19.275,3.60937488 19.275,6.57 C19.275,6.78937488 19.2581251,7.005 19.23,7.23 C19.2131251,7.365 19.2543749,7.5 19.3425,7.60312512 C19.4306251,7.70625024 19.56,7.76625024 19.695,7.77 L19.725,7.77 C21.5606251,7.77 23.04,9.24937488 23.04,11.085 C23.04,12.9206251 21.5606251,14.4 19.725,14.4 L15.36,14.4 C15.1875,14.3981251 15.0262502,14.4881251 14.9381251,14.6381251 C14.8518749,14.7881251 14.8518749,14.9718749 14.9381251,15.1218749 C15.0262502,15.2718749 15.1875,15.3618749 15.36,15.36 L19.725,15.36 C22.08,15.36 24,13.44 24,11.085 C24,8.90062512 22.3237502,7.16437488 20.205,6.915 C20.2125,6.79875024 20.235,6.69 20.235,6.57 C20.235,3.09 17.4,0.255 13.92,0.255 Z M12,8.445 L11.655,8.775 L9.255,11.175 C9.06375024,11.3662502 9.06375024,11.6737502 9.255,11.865 C9.44625024,12.0562502 9.75375024,12.0562502 9.945,11.865 L11.52,10.29 L11.52,18.72 C11.5181251,18.8925 11.6081251,19.0537502 11.7581251,19.1418749 C11.9081251,19.2281251 12.0918749,19.2281251 12.2418749,19.1418749 C12.3918749,19.0537502 12.4818749,18.8925 12.48,18.72 L12.48,10.29 L14.055,11.865 C14.2462502,12.0562502 14.5537502,12.0562502 14.745,11.865 C14.9362502,11.6737502 14.9362502,11.3662502 14.745,11.175 L12.345,8.775 L12,8.445 Z" id="Shape"></path>
            </g>
        </g>
    </g>
</svg>
